<svg xmlns="http://www.w3.org/2000/svg" viewBox="0 0 1100 780" width="1100" height="780" role="img" aria-label="Tier 2 - Core node, iso view, 63 bodies"><rect width="1100" height="780" fill="#f7f6f3"/><path d="M 602.9 278.2 Q 585.25 364.4 567.6 346.4" stroke="#4a4f56" stroke-width="1.6" fill="none" opacity="0.8"/><path d="M 862.2 197.0 Q 714.9000000000001 364.4 567.6 346.4" stroke="#4a4f56" stroke-width="1.6" fill="none" opacity="0.8"/><path d="M 666.6 599.0 Q 557.45 617 448.3 395.8" stroke="#c8b48a" stroke-width="3" fill="none" opacity="0.8"/><path d="M 811.4 549.5 Q 645.2 567.5 479.0 385.3" stroke="#c8b48a" stroke-width="3" fill="none" opacity="0.8"/><path d="M 195.0 177.3 Q 235 292.9 275.0 274.9" stroke="#4a4f56" stroke-width="1.6" fill="none" opacity="0.8"/><path d="M 298.1 142.0 Q 286.55 292.9 275.0 274.9" stroke="#4a4f56" stroke-width="1.6" fill="none" opacity="0.8"/><path d="M 388.2 105.1 Q 459.75 205.2 531.3 187.2" stroke="#4a4f56" stroke-width="1.6" fill="none" opacity="0.8"/><path d="M 490.3 76.2 Q 510.79999999999995 205.2 531.3 187.2" stroke="#4a4f56" stroke-width="1.6" fill="none" opacity="0.8"/><polygon points="653.3,668.8 657.6,656.3 657.6,548.1 653.3,560.7" fill="#1d1f21" stroke="rgba(20,24,30,0.55)" stroke-width="0.7"/><polygon points="746.2,652.2 755.5,664.1 755.5,556.0 746.2,544.0" fill="#131517" stroke="rgba(20,24,30,0.55)" stroke-width="0.7"/><polygon points="657.6,656.3 674.5,646.4 674.5,538.3 657.6,548.1" fill="#222427" stroke="rgba(20,24,30,0.55)" stroke-width="0.7"/><polygon points="725.6,644.1 699.4,642.0 674.5,646.4 657.6,656.3 653.3,668.8 662.6,680.8 683.1,688.9 709.3,691.0 734.2,686.5 751.1,676.7 755.5,664.1 746.2,652.2" fill="#131517" stroke="rgba(20,24,30,0.55)" stroke-width="0.7"/><polygon points="725.6,644.1 746.2,652.2 746.2,544.0 725.6,535.9" fill="#191c1e" stroke="rgba(20,24,30,0.55)" stroke-width="0.7"/><polygon points="674.5,646.4 699.4,642.0 699.4,533.8 674.5,538.3" fill="#232629" stroke="rgba(20,24,30,0.55)" stroke-width="0.7"/><polygon points="699.4,642.0 725.6,644.1 725.6,535.9 699.4,533.8" fill="#202225" stroke="rgba(20,24,30,0.55)" stroke-width="0.7"/><polygon points="689.2,740.0 795.1,703.8 719.5,653.0 613.7,689.2" fill="#113420" stroke="rgba(20,24,30,0.55)" stroke-width="0.7"/><polygon points="719.5,653.0 795.1,703.8 795.1,673.7 719.5,623.0" fill="#133a24" stroke="rgba(20,24,30,0.55)" stroke-width="0.7"/><polygon points="719.5,653.0 613.7,689.2 613.7,659.2 719.5,623.0" fill="#1f5e39" stroke="rgba(20,24,30,0.55)" stroke-width="0.7"/><polygon points="798.1,619.3 802.5,606.7 802.5,498.6 798.1,511.1" fill="#1d1f21" stroke="rgba(20,24,30,0.55)" stroke-width="0.7"/><polygon points="891.0,602.6 900.3,614.5 900.3,506.4 891.0,494.5" fill="#131517" stroke="rgba(20,24,30,0.55)" stroke-width="0.7"/><polygon points="802.5,606.7 819.4,596.9 819.4,488.7 802.5,498.6" fill="#222427" stroke="rgba(20,24,30,0.55)" stroke-width="0.7"/><polygon points="870.5,594.5 844.3,592.4 819.4,596.9 802.5,606.7 798.1,619.3 807.4,631.2 828.0,639.3 854.2,641.4 879.1,636.9 896.0,627.1 900.3,614.5 891.0,602.6" fill="#131517" stroke="rgba(20,24,30,0.55)" stroke-width="0.7"/><polygon points="870.5,594.5 891.0,602.6 891.0,494.5 870.5,486.4" fill="#191c1e" stroke="rgba(20,24,30,0.55)" stroke-width="0.7"/><polygon points="819.4,596.9 844.3,592.4 844.3,484.3 819.4,488.7" fill="#232629" stroke="rgba(20,24,30,0.55)" stroke-width="0.7"/><polygon points="844.3,592.4 870.5,594.5 870.5,486.4 844.3,484.3" fill="#202225" stroke="rgba(20,24,30,0.55)" stroke-width="0.7"/><polygon points="834.1,690.4 939.9,654.2 864.4,603.4 758.5,639.7" fill="#113420" stroke="rgba(20,24,30,0.55)" stroke-width="0.7"/><polygon points="864.4,603.4 939.9,654.2 939.9,624.1 864.4,573.4" fill="#133a24" stroke="rgba(20,24,30,0.55)" stroke-width="0.7"/><polygon points="864.4,603.4 758.5,639.7 758.5,609.6 864.4,573.4" fill="#1f5e39" stroke="rgba(20,24,30,0.55)" stroke-width="0.7"/><polygon points="407.1,357.2 407.8,355.1 407.8,322.1 407.1,324.2" fill="#7d8289" stroke="rgba(20,24,30,0.35)" stroke-width="0.5"/><polygon points="422.6,354.4 424.1,356.4 424.1,323.4 422.6,321.4" fill="#55585c" stroke="rgba(20,24,30,0.35)" stroke-width="0.5"/><polygon points="407.8,355.1 410.6,353.5 410.6,320.4 407.8,322.1" fill="#9399a1" stroke="rgba(20,24,30,0.35)" stroke-width="0.5"/><polygon points="419.2,353.1 422.6,354.4 422.6,321.4 419.2,320.0" fill="#70747a" stroke="rgba(20,24,30,0.35)" stroke-width="0.5"/><polygon points="410.6,353.5 414.8,352.7 414.8,319.7 410.6,320.4" fill="#999fa6" stroke="rgba(20,24,30,0.35)" stroke-width="0.5"/><polygon points="414.8,352.7 419.2,353.1 419.2,320.0 414.8,319.7" fill="#8c9198" stroke="rgba(20,24,30,0.35)" stroke-width="0.5"/><polygon points="419.2,353.1 414.8,352.7 410.6,353.5 407.8,355.1 407.1,357.2 408.6,359.2 412.1,360.5 416.4,360.9 420.6,360.2 423.4,358.5 424.1,356.4 422.6,354.4" fill="#55585c" stroke="rgba(20,24,30,0.35)" stroke-width="0.5"/><polygon points="407.1,409.8 407.8,407.7 407.8,374.6 407.1,376.7" fill="#7d8289" stroke="rgba(20,24,30,0.35)" stroke-width="0.5"/><polygon points="422.6,407.0 424.1,409.0 424.1,375.9 422.6,374.0" fill="#55585c" stroke="rgba(20,24,30,0.35)" stroke-width="0.5"/><polygon points="407.8,407.7 410.6,406.0 410.6,373.0 407.8,374.6" fill="#9399a1" stroke="rgba(20,24,30,0.35)" stroke-width="0.5"/><polygon points="419.2,405.6 422.6,407.0 422.6,374.0 419.2,372.6" fill="#70747a" stroke="rgba(20,24,30,0.35)" stroke-width="0.5"/><polygon points="410.6,406.0 414.8,405.3 414.8,372.3 410.6,373.0" fill="#999fa6" stroke="rgba(20,24,30,0.35)" stroke-width="0.5"/><polygon points="414.8,405.3 419.2,405.6 419.2,372.6 414.8,372.3" fill="#8c9198" stroke="rgba(20,24,30,0.35)" stroke-width="0.5"/><polygon points="419.2,405.6 414.8,405.3 410.6,406.0 407.8,407.7 407.1,409.8 408.6,411.8 412.1,413.1 416.4,413.5 420.6,412.7 423.4,411.1 424.1,409.0 422.6,407.0" fill="#55585c" stroke="rgba(20,24,30,0.35)" stroke-width="0.5"/><polygon points="437.9,361.5 426.9,360.6 416.6,362.5 409.5,366.6 407.7,371.8 411.6,376.8 420.1,380.1 431.0,381.0 441.4,379.2 448.5,375.1 450.3,369.8 446.4,364.8" fill="#55585c" stroke="rgba(20,24,30,0.55)" stroke-width="0.7"/><polygon points="407.7,371.8 409.5,366.6 409.5,357.5 407.7,362.8" fill="#7d8289" stroke="rgba(20,24,30,0.55)" stroke-width="0.7"/><polygon points="297.2,279.9 311.7,274.9 304.1,269.9 289.6,274.8" fill="#17191c" stroke="rgba(20,24,30,0.55)" stroke-width="0.7"/><polygon points="446.4,364.8 450.3,369.8 450.3,360.8 446.4,355.8" fill="#55585c" stroke="rgba(20,24,30,0.55)" stroke-width="0.7"/><polygon points="304.1,269.9 311.7,274.9 311.7,271.6 304.1,266.5" fill="#1a1c1f" stroke="rgba(20,24,30,0.55)" stroke-width="0.7"/><polygon points="304.1,269.9 289.6,274.8 289.6,271.5 304.1,266.5" fill="#2a2d32" stroke="rgba(20,24,30,0.55)" stroke-width="0.7"/><polygon points="281.9,301.2 351.6,277.4 315.8,253.3 246.1,277.2" fill="#113420" stroke="rgba(20,24,30,0.55)" stroke-width="0.7"/><polygon points="409.5,366.6 416.6,362.5 416.6,353.4 409.5,357.5" fill="#9399a1" stroke="rgba(20,24,30,0.55)" stroke-width="0.7"/><polygon points="437.9,361.5 446.4,364.8 446.4,355.8 437.9,352.5" fill="#70747a" stroke="rgba(20,24,30,0.55)" stroke-width="0.7"/><polygon points="416.6,362.5 426.9,360.6 426.9,351.6 416.6,353.4" fill="#999fa6" stroke="rgba(20,24,30,0.55)" stroke-width="0.7"/><polygon points="426.9,360.6 437.9,361.5 437.9,352.5 426.9,351.6" fill="#8c9198" stroke="rgba(20,24,30,0.55)" stroke-width="0.7"/><polygon points="263.3,274.5 312.0,257.8 307.2,254.6 258.5,271.3" fill="#0f1114" stroke="rgba(20,24,30,0.55)" stroke-width="0.7"/><polygon points="307.2,254.6 258.5,271.3 258.5,262.3 307.2,245.6" fill="#1c1f24" stroke="rgba(20,24,30,0.55)" stroke-width="0.7"/><polygon points="315.8,253.3 351.6,277.4 351.6,273.8 315.8,249.7" fill="#133a24" stroke="rgba(20,24,30,0.55)" stroke-width="0.7"/><polygon points="315.8,253.3 246.1,277.2 246.1,273.6 315.8,249.7" fill="#1f5e39" stroke="rgba(20,24,30,0.55)" stroke-width="0.7"/><polygon points="307.2,254.6 312.0,257.8 312.0,248.8 307.2,245.6" fill="#111316" stroke="rgba(20,24,30,0.55)" stroke-width="0.7"/><polygon points="522.5,426.7 376.6,476.7 376.6,451.1 522.5,401.2" fill="#1c1f24" stroke="rgba(20,24,30,0.55)" stroke-width="0.7"/><polygon points="386.7,483.5 532.7,433.5 522.5,426.7 376.6,476.7" fill="#0f1114" stroke="rgba(20,24,30,0.55)" stroke-width="0.7"/><polygon points="343.2,355.6 663.5,246.0 552.2,171.2 231.8,280.8" fill="#0f3420" stroke="rgba(20,24,30,0.35)" stroke-width="0.5"/><polygon points="568.7,301.9 569.4,299.8 569.4,266.8 568.7,268.9" fill="#7d8289" stroke="rgba(20,24,30,0.35)" stroke-width="0.5"/><polygon points="584.1,299.1 585.7,301.1 585.7,268.1 584.1,266.1" fill="#55585c" stroke="rgba(20,24,30,0.35)" stroke-width="0.5"/><polygon points="569.4,299.8 572.2,298.2 572.2,265.1 569.4,266.8" fill="#9399a1" stroke="rgba(20,24,30,0.35)" stroke-width="0.5"/><polygon points="580.7,297.8 584.1,299.1 584.1,266.1 580.7,264.7" fill="#70747a" stroke="rgba(20,24,30,0.35)" stroke-width="0.5"/><polygon points="572.2,298.2 576.4,297.4 576.4,264.4 572.2,265.1" fill="#999fa6" stroke="rgba(20,24,30,0.35)" stroke-width="0.5"/><polygon points="576.4,297.4 580.7,297.8 580.7,264.7 576.4,264.4" fill="#8c9198" stroke="rgba(20,24,30,0.35)" stroke-width="0.5"/><polygon points="390.7,261.9 429.7,248.5 409.8,235.2 370.8,248.5" fill="#17191c" stroke="rgba(20,24,30,0.55)" stroke-width="0.7"/><polygon points="580.7,297.8 576.4,297.4 572.2,298.2 569.4,299.8 568.7,301.9 570.2,303.9 573.6,305.2 578.0,305.6 582.2,304.9 585.0,303.2 585.7,301.1 584.1,299.1" fill="#55585c" stroke="rgba(20,24,30,0.35)" stroke-width="0.5"/><polygon points="373.9,283.9 471.4,250.5 421.6,217.1 324.1,250.5" fill="#113420" stroke="rgba(20,24,30,0.55)" stroke-width="0.7"/><polygon points="409.8,235.2 429.7,248.5 429.7,243.7 409.8,230.4" fill="#1a1c1f" stroke="rgba(20,24,30,0.55)" stroke-width="0.7"/><polygon points="409.8,235.2 370.8,248.5 370.8,243.7 409.8,230.4" fill="#2a2d32" stroke="rgba(20,24,30,0.55)" stroke-width="0.7"/><polygon points="309.6,291.8 310.4,289.7 310.4,256.6 309.6,258.7" fill="#7d8289" stroke="rgba(20,24,30,0.35)" stroke-width="0.5"/><polygon points="415.9,355.3 460.5,340.0 428.7,318.6 384.1,333.9" fill="#222428" stroke="rgba(20,24,30,0.55)" stroke-width="0.7"/><polygon points="325.1,289.0 326.7,291.0 326.7,257.9 325.1,255.9" fill="#55585c" stroke="rgba(20,24,30,0.35)" stroke-width="0.5"/><polygon points="310.4,289.7 313.2,288.0 313.2,255.0 310.4,256.6" fill="#9399a1" stroke="rgba(20,24,30,0.35)" stroke-width="0.5"/><polygon points="321.7,287.6 325.1,289.0 325.1,255.9 321.7,254.6" fill="#70747a" stroke="rgba(20,24,30,0.35)" stroke-width="0.5"/><polygon points="313.2,288.0 317.3,287.3 317.3,254.2 313.2,255.0" fill="#999fa6" stroke="rgba(20,24,30,0.35)" stroke-width="0.5"/><polygon points="317.3,287.3 321.7,287.6 321.7,254.6 317.3,254.2" fill="#8c9198" stroke="rgba(20,24,30,0.35)" stroke-width="0.5"/><polygon points="456.6,451.9 491.4,440.0 472.5,427.3 437.7,439.2" fill="#232529" stroke="rgba(20,24,30,0.55)" stroke-width="0.7"/><polygon points="321.7,287.6 317.3,287.3 313.2,288.0 310.4,289.7 309.6,291.8 311.2,293.8 314.6,295.1 319.0,295.5 323.1,294.7 325.9,293.1 326.7,291.0 325.1,289.0" fill="#55585c" stroke="rgba(20,24,30,0.35)" stroke-width="0.5"/><polygon points="568.7,354.5 569.4,352.4 569.4,319.3 568.7,321.4" fill="#7d8289" stroke="rgba(20,24,30,0.35)" stroke-width="0.5"/><polygon points="584.1,351.7 585.7,353.7 585.7,320.6 584.1,318.7" fill="#55585c" stroke="rgba(20,24,30,0.35)" stroke-width="0.5"/><polygon points="428.7,318.6 460.5,340.0 460.5,332.2 428.7,310.8" fill="#26282c" stroke="rgba(20,24,30,0.55)" stroke-width="0.7"/><polygon points="569.4,352.4 572.2,350.7 572.2,317.7 569.4,319.3" fill="#9399a1" stroke="rgba(20,24,30,0.35)" stroke-width="0.5"/><polygon points="347.1,247.5 415.4,224.1 410.6,220.9 342.3,244.3" fill="#0f1114" stroke="rgba(20,24,30,0.55)" stroke-width="0.7"/><polygon points="410.6,220.9 342.3,244.3 342.3,235.3 410.6,211.9" fill="#1c1f24" stroke="rgba(20,24,30,0.55)" stroke-width="0.7"/><polygon points="580.7,350.3 584.1,351.7 584.1,318.7 580.7,317.3" fill="#70747a" stroke="rgba(20,24,30,0.35)" stroke-width="0.5"/><polygon points="572.2,350.7 576.4,350.0 576.4,317.0 572.2,317.7" fill="#999fa6" stroke="rgba(20,24,30,0.35)" stroke-width="0.5"/><polygon points="576.4,350.0 580.7,350.3 580.7,317.3 576.4,317.0" fill="#8c9198" stroke="rgba(20,24,30,0.35)" stroke-width="0.5"/><polygon points="428.7,318.6 384.1,333.9 384.1,326.1 428.7,310.8" fill="#3c4047" stroke="rgba(20,24,30,0.55)" stroke-width="0.7"/><polygon points="472.5,427.3 491.4,440.0 491.4,435.8 472.5,423.1" fill="#272a2e" stroke="rgba(20,24,30,0.55)" stroke-width="0.7"/><polygon points="580.7,350.3 576.4,350.0 572.2,350.7 569.4,352.4 568.7,354.5 570.2,356.5 573.6,357.8 578.0,358.2 582.2,357.4 585.0,355.8 585.7,353.7 584.1,351.7" fill="#55585c" stroke="rgba(20,24,30,0.35)" stroke-width="0.5"/><polygon points="522.5,426.7 532.7,433.5 532.7,408.0 522.5,401.2" fill="#111316" stroke="rgba(20,24,30,0.55)" stroke-width="0.7"/><polygon points="472.5,427.3 437.7,439.2 437.7,435.0 472.5,423.1" fill="#3e434a" stroke="rgba(20,24,30,0.55)" stroke-width="0.7"/><polygon points="412.8,401.5 593.9,339.5 482.5,264.7 301.5,326.7" fill="#113420" stroke="rgba(20,24,30,0.55)" stroke-width="0.7"/><polygon points="421.6,217.1 471.4,250.5 471.4,246.9 421.6,213.5" fill="#133a24" stroke="rgba(20,24,30,0.55)" stroke-width="0.7"/><polygon points="421.6,217.1 324.1,250.5 324.1,246.9 421.6,213.5" fill="#1f5e39" stroke="rgba(20,24,30,0.55)" stroke-width="0.7"/><polygon points="309.6,344.3 310.4,342.2 310.4,309.2 309.6,311.3" fill="#7d8289" stroke="rgba(20,24,30,0.35)" stroke-width="0.5"/><polygon points="325.1,341.6 326.7,343.5 326.7,310.5 325.1,308.5" fill="#55585c" stroke="rgba(20,24,30,0.35)" stroke-width="0.5"/><polygon points="310.4,342.2 313.2,340.6 313.2,307.6 310.4,309.2" fill="#9399a1" stroke="rgba(20,24,30,0.35)" stroke-width="0.5"/><polygon points="410.6,220.9 415.4,224.1 415.4,215.1 410.6,211.9" fill="#111316" stroke="rgba(20,24,30,0.55)" stroke-width="0.7"/><polygon points="321.7,340.2 325.1,341.6 325.1,308.5 321.7,307.2" fill="#70747a" stroke="rgba(20,24,30,0.35)" stroke-width="0.5"/><polygon points="313.2,340.6 317.3,339.9 317.3,306.8 313.2,307.6" fill="#999fa6" stroke="rgba(20,24,30,0.35)" stroke-width="0.5"/><polygon points="317.3,339.9 321.7,340.2 321.7,307.2 317.3,306.8" fill="#8c9198" stroke="rgba(20,24,30,0.35)" stroke-width="0.5"/><polygon points="321.7,340.2 317.3,339.9 313.2,340.6 310.4,342.2 309.6,344.3 311.2,346.3 314.6,347.7 319.0,348.0 323.1,347.3 325.9,345.6 326.7,343.5 325.1,341.6" fill="#55585c" stroke="rgba(20,24,30,0.35)" stroke-width="0.5"/><polygon points="560.3,425.5 572.8,421.2 567.8,417.8 555.3,422.1" fill="#777261" stroke="rgba(20,24,30,0.55)" stroke-width="0.7"/><polygon points="567.8,417.8 555.3,422.1 555.3,413.1 567.8,408.8" fill="#d6ceae" stroke="rgba(20,24,30,0.55)" stroke-width="0.7"/><polygon points="567.8,417.8 572.8,421.2 572.8,412.2 567.8,408.8" fill="#85806c" stroke="rgba(20,24,30,0.55)" stroke-width="0.7"/><polygon points="537.7,312.3 538.7,309.5 538.7,291.5 537.7,294.2" fill="#a48a4f" stroke="rgba(20,24,30,0.55)" stroke-width="0.7"/><polygon points="557.7,429.4 566.0,426.5 542.2,410.5 533.8,413.4" fill="#665d46" stroke="rgba(20,24,30,0.55)" stroke-width="0.7"/><polygon points="542.2,410.5 566.0,426.5 566.0,418.7 542.2,402.7" fill="#72684e" stroke="rgba(20,24,30,0.55)" stroke-width="0.7"/><polygon points="557.8,308.6 559.9,311.2 559.9,293.2 557.8,290.6" fill="#6f5d35" stroke="rgba(20,24,30,0.55)" stroke-width="0.7"/><polygon points="553.4,306.9 547.7,306.4 542.3,307.4 538.7,309.5 537.7,312.3 539.7,314.8 544.2,316.6 549.9,317.0 555.2,316.1 558.9,313.9 559.9,311.2 557.8,308.6" fill="#6f5d35" stroke="rgba(20,24,30,0.55)" stroke-width="0.7"/><polygon points="538.7,309.5 542.3,307.4 542.3,289.4 538.7,291.5" fill="#c0a25d" stroke="rgba(20,24,30,0.55)" stroke-width="0.7"/><polygon points="552.2,171.2 231.8,280.8 231.8,276.0 552.2,166.4" fill="#1b5d39" stroke="rgba(20,24,30,0.35)" stroke-width="0.5"/><polygon points="553.4,306.9 557.8,308.6 557.8,290.6 553.4,288.9" fill="#927b46" stroke="rgba(20,24,30,0.55)" stroke-width="0.7"/><polygon points="432.1,434.0 473.9,419.7 444.1,399.7 402.3,414.0" fill="#2e3034" stroke="rgba(20,24,30,0.55)" stroke-width="0.7"/><polygon points="542.3,307.4 547.7,306.4 547.7,288.4 542.3,289.4" fill="#c7a760" stroke="rgba(20,24,30,0.55)" stroke-width="0.7"/><polygon points="547.7,306.4 553.4,306.9 553.4,288.9 547.7,288.4" fill="#b69958" stroke="rgba(20,24,30,0.55)" stroke-width="0.7"/><polygon points="542.2,410.5 533.8,413.4 533.8,405.6 542.2,402.7" fill="#b7a77e" stroke="rgba(20,24,30,0.55)" stroke-width="0.7"/><polygon points="177.6,174.0 186.6,171.0 180.2,166.7 171.3,169.8" fill="#17191c" stroke="rgba(20,24,30,0.55)" stroke-width="0.7"/><polygon points="180.2,166.7 186.6,171.0 186.6,167.7 180.2,163.4" fill="#1a1c1f" stroke="rgba(20,24,30,0.55)" stroke-width="0.7"/><polygon points="180.2,166.7 171.3,169.8 171.3,166.4 180.2,163.4" fill="#2a2d32" stroke="rgba(20,24,30,0.55)" stroke-width="0.7"/><polygon points="444.1,399.7 473.9,419.7 473.9,412.5 444.1,392.5" fill="#33363a" stroke="rgba(20,24,30,0.55)" stroke-width="0.7"/><polygon points="160.2,196.7 229.9,172.9 194.1,148.8 124.4,172.7" fill="#113420" stroke="rgba(20,24,30,0.55)" stroke-width="0.7"/><polygon points="385.0,493.3 621.8,412.3 510.4,337.5 273.6,418.5" fill="#113d25" stroke="rgba(20,24,30,0.35)" stroke-width="0.5"/><polygon points="492.4,419.5 520.3,409.9 500.4,396.6 472.5,406.1" fill="#292b2f" stroke="rgba(20,24,30,0.55)" stroke-width="0.7"/><polygon points="444.1,399.7 402.3,414.0 402.3,406.8 444.1,392.5" fill="#52575e" stroke="rgba(20,24,30,0.55)" stroke-width="0.7"/><polygon points="500.4,396.6 520.3,409.9 520.3,404.8 500.4,391.5" fill="#2d3135" stroke="rgba(20,24,30,0.55)" stroke-width="0.7"/><polygon points="482.5,264.7 593.9,339.5 593.9,334.7 482.5,259.9" fill="#133a24" stroke="rgba(20,24,30,0.55)" stroke-width="0.7"/><polygon points="586.9,384.1 621.8,407.5 621.8,358.2 586.9,334.8" fill="#17191d" stroke="rgba(20,24,30,0.55)" stroke-width="0.7"/><polygon points="441.9,297.9 447.5,296.0 444.5,294.0 439.0,295.9" fill="#23662c" stroke="rgba(20,24,30,0.55)" stroke-width="0.7"/><polygon points="302.8,409.3 327.9,400.8 321.1,396.2 296.1,404.8" fill="#55585c" stroke="rgba(20,24,30,0.55)" stroke-width="0.7"/><polygon points="581.4,421.3 621.8,407.5 586.9,384.1 546.6,397.9" fill="#15171a" stroke="rgba(20,24,30,0.55)" stroke-width="0.7"/><polygon points="141.5,170.0 190.3,153.3 185.5,150.1 136.8,166.8" fill="#0f1114" stroke="rgba(20,24,30,0.55)" stroke-width="0.7"/><polygon points="185.5,150.1 136.8,166.8 136.8,157.8 185.5,141.1" fill="#1c1f24" stroke="rgba(20,24,30,0.55)" stroke-width="0.7"/><polygon points="444.5,294.0 447.5,296.0 447.5,293.0 444.5,291.0" fill="#277231" stroke="rgba(20,24,30,0.55)" stroke-width="0.7"/><polygon points="444.5,294.0 439.0,295.9 439.0,292.9 444.5,291.0" fill="#3eb74f" stroke="rgba(20,24,30,0.55)" stroke-width="0.7"/><polygon points="500.4,396.6 472.5,406.1 472.5,401.0 500.4,391.5" fill="#494e55" stroke="rgba(20,24,30,0.55)" stroke-width="0.7"/><polygon points="321.1,396.2 296.1,404.8 296.1,394.9 321.1,386.3" fill="#989ea6" stroke="rgba(20,24,30,0.55)" stroke-width="0.7"/><polygon points="552.2,171.2 663.5,246.0 663.5,241.2 552.2,166.4" fill="#113a24" stroke="rgba(20,24,30,0.35)" stroke-width="0.5"/><polygon points="321.1,396.2 327.9,400.8 327.9,390.9 321.1,386.3" fill="#5f6267" stroke="rgba(20,24,30,0.55)" stroke-width="0.7"/><polygon points="194.1,148.8 229.9,172.9 229.9,169.3 194.1,145.2" fill="#133a24" stroke="rgba(20,24,30,0.55)" stroke-width="0.7"/><polygon points="194.1,148.8 124.4,172.7 124.4,169.1 194.1,145.2" fill="#1f5e39" stroke="rgba(20,24,30,0.55)" stroke-width="0.7"/><polygon points="586.9,384.1 546.6,397.9 546.6,348.7 586.9,334.8" fill="#26292e" stroke="rgba(20,24,30,0.55)" stroke-width="0.7"/><polygon points="482.5,264.7 301.5,326.7 301.5,321.9 482.5,259.9" fill="#1f5e39" stroke="rgba(20,24,30,0.55)" stroke-width="0.7"/><polygon points="185.5,150.1 190.3,153.3 190.3,144.3 185.5,141.1" fill="#111316" stroke="rgba(20,24,30,0.55)" stroke-width="0.7"/><polygon points="494.4,290.5 502.8,287.6 496.8,283.6 488.4,286.5" fill="#6f5d35" stroke="rgba(20,24,30,0.55)" stroke-width="0.7"/><polygon points="466.6,297.3 320.6,347.3 320.6,321.8 466.6,271.8" fill="#1c1f24" stroke="rgba(20,24,30,0.55)" stroke-width="0.7"/><polygon points="330.8,354.1 476.7,304.1 466.6,297.3 320.6,347.3" fill="#0f1114" stroke="rgba(20,24,30,0.55)" stroke-width="0.7"/><polygon points="496.8,283.6 502.8,287.6 502.8,283.4 496.8,279.4" fill="#7c683c" stroke="rgba(20,24,30,0.55)" stroke-width="0.7"/><polygon points="496.8,283.6 488.4,286.5 488.4,282.3 496.8,279.4" fill="#c7a760" stroke="rgba(20,24,30,0.55)" stroke-width="0.7"/><polygon points="341.4,395.7 361.5,388.9 355.1,384.6 335.1,391.5" fill="#55585c" stroke="rgba(20,24,30,0.55)" stroke-width="0.7"/><polygon points="355.1,384.6 335.1,391.5 335.1,381.5 355.1,374.7" fill="#989ea6" stroke="rgba(20,24,30,0.55)" stroke-width="0.7"/><polygon points="471.2,236.5 471.9,234.4 471.9,201.3 471.2,203.4" fill="#7d8289" stroke="rgba(20,24,30,0.35)" stroke-width="0.5"/><polygon points="355.1,384.6 361.5,388.9 361.5,379.0 355.1,374.7" fill="#5f6267" stroke="rgba(20,24,30,0.55)" stroke-width="0.7"/><polygon points="486.7,233.7 488.3,235.7 488.3,202.6 486.7,200.6" fill="#55585c" stroke="rgba(20,24,30,0.35)" stroke-width="0.5"/><polygon points="471.9,234.4 474.8,232.7 474.8,199.7 471.9,201.3" fill="#9399a1" stroke="rgba(20,24,30,0.35)" stroke-width="0.5"/><polygon points="335.7,393.3 369.1,381.8 365.9,379.7 332.5,391.1" fill="#3b3e42" stroke="rgba(20,24,30,0.55)" stroke-width="0.7"/><polygon points="410.2,371.0 451.9,399.0 451.9,390.0 410.2,362.0" fill="#7b6f55" stroke="rgba(20,24,30,0.55)" stroke-width="0.7"/><polygon points="444.7,401.5 451.9,399.0 410.2,371.0 402.9,373.5" fill="#6e634c" stroke="rgba(20,24,30,0.55)" stroke-width="0.7"/><polygon points="483.3,232.3 486.7,233.7 486.7,200.6 483.3,199.3" fill="#70747a" stroke="rgba(20,24,30,0.35)" stroke-width="0.5"/><polygon points="365.9,379.7 332.5,391.1 332.5,386.3 365.9,374.9" fill="#6a6f77" stroke="rgba(20,24,30,0.55)" stroke-width="0.7"/><polygon points="474.8,232.7 478.9,232.0 478.9,198.9 474.8,199.7" fill="#999fa6" stroke="rgba(20,24,30,0.35)" stroke-width="0.5"/><polygon points="478.9,232.0 483.3,232.3 483.3,199.3 478.9,198.9" fill="#8c9198" stroke="rgba(20,24,30,0.35)" stroke-width="0.5"/><polygon points="483.3,232.3 478.9,232.0 474.8,232.7 471.9,234.4 471.2,236.5 472.8,238.5 476.2,239.8 480.6,240.2 484.7,239.4 487.5,237.8 488.3,235.7 486.7,233.7" fill="#55585c" stroke="rgba(20,24,30,0.35)" stroke-width="0.5"/><polygon points="365.9,379.7 369.1,381.8 369.1,377.0 365.9,374.9" fill="#42454a" stroke="rgba(20,24,30,0.55)" stroke-width="0.7"/><polygon points="478.9,387.8 495.6,382.1 483.7,374.1 467.0,379.8" fill="#292b2f" stroke="rgba(20,24,30,0.55)" stroke-width="0.7"/><polygon points="334.3,404.4 376.1,390.1 354.2,375.4 312.4,389.7" fill="#323236" stroke="rgba(20,24,30,0.35)" stroke-width="0.5"/><polygon points="483.7,374.1 495.6,382.1 495.6,378.5 483.7,370.5" fill="#2d3135" stroke="rgba(20,24,30,0.55)" stroke-width="0.7"/><polygon points="550.2,359.4 585.0,382.8 585.0,333.5 550.2,310.1" fill="#1d3158" stroke="rgba(20,24,30,0.55)" stroke-width="0.7"/><polygon points="544.6,396.6 585.0,382.8 550.2,359.4 509.8,373.2" fill="#1a2b4f" stroke="rgba(20,24,30,0.55)" stroke-width="0.7"/><polygon points="280.8,138.5 289.2,135.7 283.2,131.6 274.8,134.5" fill="#17191c" stroke="rgba(20,24,30,0.55)" stroke-width="0.7"/><polygon points="483.7,374.1 467.0,379.8 467.0,376.2 483.7,370.5" fill="#494e55" stroke="rgba(20,24,30,0.55)" stroke-width="0.7"/><polygon points="380.4,382.4 400.5,375.5 394.1,371.2 374.1,378.1" fill="#55585c" stroke="rgba(20,24,30,0.55)" stroke-width="0.7"/><polygon points="283.2,131.6 289.2,135.7 289.2,133.0 283.2,128.9" fill="#1a1c1f" stroke="rgba(20,24,30,0.55)" stroke-width="0.7"/><polygon points="394.1,371.2 374.1,378.1 374.1,368.2 394.1,361.3" fill="#989ea6" stroke="rgba(20,24,30,0.55)" stroke-width="0.7"/><polygon points="283.2,131.6 274.8,134.5 274.8,131.8 283.2,128.9" fill="#2a2d32" stroke="rgba(20,24,30,0.55)" stroke-width="0.7"/><polygon points="440.8,360.5 482.6,388.6 482.6,379.5 440.8,351.5" fill="#7b6f55" stroke="rgba(20,24,30,0.55)" stroke-width="0.7"/><polygon points="475.3,391.0 482.6,388.6 440.8,360.5 433.6,363.0" fill="#6e634c" stroke="rgba(20,24,30,0.55)" stroke-width="0.7"/><polygon points="263.3,161.4 332.9,137.6 297.1,113.5 227.5,137.4" fill="#113420" stroke="rgba(20,24,30,0.55)" stroke-width="0.7"/><polygon points="394.1,371.2 400.5,375.5 400.5,365.6 394.1,361.3" fill="#5f6267" stroke="rgba(20,24,30,0.55)" stroke-width="0.7"/><polygon points="550.2,359.4 509.8,373.2 509.8,323.9 550.2,310.1" fill="#2e4e8d" stroke="rgba(20,24,30,0.55)" stroke-width="0.7"/><polygon points="410.2,371.0 402.9,373.5 402.9,364.5 410.2,362.0" fill="#c6b289" stroke="rgba(20,24,30,0.55)" stroke-width="0.7"/><polygon points="354.2,375.4 376.1,390.1 376.1,387.1 354.2,372.4" fill="#37373c" stroke="rgba(20,24,30,0.35)" stroke-width="0.5"/><polygon points="471.2,289.0 471.9,286.9 471.9,253.9 471.2,256.0" fill="#7d8289" stroke="rgba(20,24,30,0.35)" stroke-width="0.5"/><polygon points="354.2,375.4 312.4,389.7 312.4,386.7 354.2,372.4" fill="#595961" stroke="rgba(20,24,30,0.35)" stroke-width="0.5"/><polygon points="510.4,337.5 273.6,418.5 273.6,413.7 510.4,332.7" fill="#1f6e42" stroke="rgba(20,24,30,0.35)" stroke-width="0.5"/><polygon points="486.7,286.3 488.3,288.2 488.3,255.2 486.7,253.2" fill="#55585c" stroke="rgba(20,24,30,0.35)" stroke-width="0.5"/><polygon points="466.6,297.3 476.7,304.1 476.7,278.6 466.6,271.8" fill="#111316" stroke="rgba(20,24,30,0.55)" stroke-width="0.7"/><polygon points="471.9,286.9 474.8,285.3 474.8,252.3 471.9,253.9" fill="#9399a1" stroke="rgba(20,24,30,0.35)" stroke-width="0.5"/><polygon points="483.3,284.9 486.7,286.3 486.7,253.2 483.3,251.9" fill="#70747a" stroke="rgba(20,24,30,0.35)" stroke-width="0.5"/><polygon points="474.8,285.3 478.9,284.6 478.9,251.5 474.8,252.3" fill="#999fa6" stroke="rgba(20,24,30,0.35)" stroke-width="0.5"/><polygon points="478.9,284.6 483.3,284.9 483.3,251.9 478.9,251.5" fill="#8c9198" stroke="rgba(20,24,30,0.35)" stroke-width="0.5"/><polygon points="510.4,337.5 621.8,412.3 621.8,407.5 510.4,332.7" fill="#134429" stroke="rgba(20,24,30,0.35)" stroke-width="0.5"/><polygon points="483.3,284.9 478.9,284.6 474.8,285.3 471.9,286.9 471.2,289.0 472.8,291.0 476.2,292.4 480.6,292.7 484.7,292.0 487.5,290.3 488.3,288.2 486.7,286.3" fill="#55585c" stroke="rgba(20,24,30,0.35)" stroke-width="0.5"/><polygon points="244.6,134.7 293.4,118.0 288.6,114.8 239.8,131.5" fill="#0f1114" stroke="rgba(20,24,30,0.55)" stroke-width="0.7"/><polygon points="288.6,114.8 239.8,131.5 239.8,122.5 288.6,105.8" fill="#1c1f24" stroke="rgba(20,24,30,0.55)" stroke-width="0.7"/><polygon points="297.1,113.5 332.9,137.6 332.9,134.0 297.1,109.9" fill="#133a24" stroke="rgba(20,24,30,0.55)" stroke-width="0.7"/><polygon points="297.1,113.5 227.5,137.4 227.5,133.8 297.1,109.9" fill="#1f5e39" stroke="rgba(20,24,30,0.55)" stroke-width="0.7"/><polygon points="440.8,360.5 433.6,363.0 433.6,354.0 440.8,351.5" fill="#c6b289" stroke="rgba(20,24,30,0.55)" stroke-width="0.7"/><polygon points="288.6,114.8 293.4,118.0 293.4,109.0 288.6,105.8" fill="#111316" stroke="rgba(20,24,30,0.55)" stroke-width="0.7"/><polygon points="504.8,369.9 545.2,356.0 513.4,334.7 473.0,348.5" fill="#25282b" stroke="rgba(20,24,30,0.55)" stroke-width="0.7"/><polygon points="513.4,334.7 545.2,356.0 545.2,315.5 513.4,294.1" fill="#292c31" stroke="rgba(20,24,30,0.55)" stroke-width="0.7"/><polygon points="513.4,334.7 473.0,348.5 473.0,307.9 513.4,294.1" fill="#42474e" stroke="rgba(20,24,30,0.55)" stroke-width="0.7"/><polygon points="372.5,101.9 382.3,98.6 377.1,95.1 367.4,98.4" fill="#17191c" stroke="rgba(20,24,30,0.55)" stroke-width="0.7"/><polygon points="377.1,95.1 382.3,98.6 382.3,95.5 377.1,92.1" fill="#1a1c1f" stroke="rgba(20,24,30,0.55)" stroke-width="0.7"/><polygon points="377.1,95.1 367.4,98.4 367.4,95.4 377.1,92.1" fill="#2a2d32" stroke="rgba(20,24,30,0.55)" stroke-width="0.7"/><polygon points="360.4,120.6 416.1,101.6 386.3,81.5 330.6,100.6" fill="#113420" stroke="rgba(20,24,30,0.55)" stroke-width="0.7"/><polygon points="344.9,98.1 383.9,84.8 379.1,81.6 340.1,94.9" fill="#0f1114" stroke="rgba(20,24,30,0.55)" stroke-width="0.7"/><polygon points="379.1,81.6 340.1,94.9 340.1,85.9 379.1,72.6" fill="#1c1f24" stroke="rgba(20,24,30,0.55)" stroke-width="0.7"/><polygon points="386.3,81.5 416.1,101.6 416.1,98.0 386.3,77.9" fill="#133a24" stroke="rgba(20,24,30,0.55)" stroke-width="0.7"/><polygon points="386.3,81.5 330.6,100.6 330.6,97.0 386.3,77.9" fill="#1f5e39" stroke="rgba(20,24,30,0.55)" stroke-width="0.7"/><polygon points="379.1,81.6 383.9,84.8 383.9,75.8 379.1,72.6" fill="#111316" stroke="rgba(20,24,30,0.55)" stroke-width="0.7"/><polygon points="473.0,72.7 481.4,69.9 475.4,65.9 467.1,68.7" fill="#17191c" stroke="rgba(20,24,30,0.55)" stroke-width="0.7"/><polygon points="475.4,65.9 481.4,69.9 481.4,66.9 475.4,62.9" fill="#1a1c1f" stroke="rgba(20,24,30,0.55)" stroke-width="0.7"/><polygon points="475.4,65.9 467.1,68.7 467.1,65.7 475.4,62.9" fill="#2a2d32" stroke="rgba(20,24,30,0.55)" stroke-width="0.7"/><polygon points="455.5,95.6 525.1,71.8 489.3,47.8 419.7,71.6" fill="#113420" stroke="rgba(20,24,30,0.55)" stroke-width="0.7"/><polygon points="436.8,68.9 485.6,52.2 480.8,49.0 432.1,65.7" fill="#0f1114" stroke="rgba(20,24,30,0.55)" stroke-width="0.7"/><polygon points="480.8,49.0 432.1,65.7 432.1,56.7 480.8,40.0" fill="#1c1f24" stroke="rgba(20,24,30,0.55)" stroke-width="0.7"/><polygon points="489.3,47.8 525.1,71.8 525.1,68.2 489.3,44.2" fill="#133a24" stroke="rgba(20,24,30,0.55)" stroke-width="0.7"/><polygon points="489.3,47.8 419.7,71.6 419.7,68.0 489.3,44.2" fill="#1f5e39" stroke="rgba(20,24,30,0.55)" stroke-width="0.7"/><polygon points="480.8,49.0 485.6,52.2 485.6,43.2 480.8,40.0" fill="#111316" stroke="rgba(20,24,30,0.55)" stroke-width="0.7"/><polygon points="608.7,301.9 647.7,288.5 623.9,272.5 584.8,285.8" fill="#55585c" stroke="rgba(20,24,30,0.55)" stroke-width="0.7"/><polygon points="623.9,272.5 647.7,288.5 647.7,273.5 623.9,257.5" fill="#5f6267" stroke="rgba(20,24,30,0.55)" stroke-width="0.7"/><polygon points="623.9,272.5 584.8,285.8 584.8,270.8 623.9,257.5" fill="#989ea6" stroke="rgba(20,24,30,0.55)" stroke-width="0.7"/><polygon points="629.8,318.8 852.6,242.5 798.9,206.5 576.1,282.7" fill="#323438" stroke="rgba(20,24,30,0.55)" stroke-width="0.7"/><polygon points="798.9,206.5 576.1,282.7 576.1,243.7 798.9,167.4" fill="#595e65" stroke="rgba(20,24,30,0.55)" stroke-width="0.7"/><polygon points="807.2,218.3 808.2,215.4 808.2,191.4 807.2,194.3" fill="#a48a4f" stroke="rgba(20,24,30,0.55)" stroke-width="0.7"/><polygon points="828.8,214.4 831.0,217.2 831.0,193.2 828.8,190.4" fill="#6f5d35" stroke="rgba(20,24,30,0.55)" stroke-width="0.7"/><polygon points="798.9,206.5 852.6,242.5 852.6,203.5 798.9,167.4" fill="#373a3f" stroke="rgba(20,24,30,0.55)" stroke-width="0.7"/><polygon points="808.2,215.4 812.1,213.1 812.1,189.1 808.2,191.4" fill="#c0a25d" stroke="rgba(20,24,30,0.55)" stroke-width="0.7"/><polygon points="824.0,212.5 817.9,212.0 812.1,213.1 808.2,215.4 807.2,218.3 809.3,221.1 814.1,223.0 820.2,223.5 826.0,222.4 830.0,220.1 831.0,217.2 828.8,214.4" fill="#6f5d35" stroke="rgba(20,24,30,0.55)" stroke-width="0.7"/><polygon points="824.0,212.5 828.8,214.4 828.8,190.4 824.0,188.5" fill="#927b46" stroke="rgba(20,24,30,0.55)" stroke-width="0.7"/><polygon points="812.1,213.1 817.9,212.0 817.9,188.0 812.1,189.1" fill="#c7a760" stroke="rgba(20,24,30,0.55)" stroke-width="0.7"/><polygon points="817.9,212.0 824.0,212.5 824.0,188.5 817.9,188.0" fill="#b69958" stroke="rgba(20,24,30,0.55)" stroke-width="0.7"/><polygon points="922.1,219.6 947.1,211.0 940.8,206.7 915.7,215.3" fill="#55585c" stroke="rgba(20,24,30,0.55)" stroke-width="0.7"/><polygon points="940.8,206.7 915.7,215.3 915.7,205.7 940.8,197.1" fill="#989ea6" stroke="rgba(20,24,30,0.55)" stroke-width="0.7"/><polygon points="940.8,206.7 947.1,211.0 947.1,201.4 940.8,197.1" fill="#5f6267" stroke="rgba(20,24,30,0.55)" stroke-width="0.7"/><polygon points="886.4,174.1 887.5,171.0 887.5,161.9 886.4,165.1" fill="#32353b" stroke="rgba(20,24,30,0.55)" stroke-width="0.7"/><polygon points="904.5,167.9 898.0,167.4 891.7,168.5 887.5,171.0 886.4,174.1 888.8,177.1 893.9,179.1 900.4,179.6 906.7,178.5 910.9,176.1 912.0,172.9 909.6,169.9" fill="#222428" stroke="rgba(20,24,30,0.55)" stroke-width="0.7"/><polygon points="909.6,169.9 912.0,172.9 912.0,163.9 909.6,160.9" fill="#222428" stroke="rgba(20,24,30,0.55)" stroke-width="0.7"/><polygon points="887.5,171.0 891.7,168.5 891.7,159.5 887.5,161.9" fill="#3a3e45" stroke="rgba(20,24,30,0.55)" stroke-width="0.7"/><polygon points="904.5,167.9 909.6,169.9 909.6,160.9 904.5,158.9" fill="#2c2f34" stroke="rgba(20,24,30,0.55)" stroke-width="0.7"/><polygon points="892.0,235.1 975.6,206.5 915.9,166.4 832.4,195.0" fill="#113420" stroke="rgba(20,24,30,0.55)" stroke-width="0.7"/><polygon points="891.7,168.5 898.0,167.4 898.0,158.4 891.7,159.5" fill="#3c4047" stroke="rgba(20,24,30,0.55)" stroke-width="0.7"/><polygon points="898.0,167.4 904.5,167.9 904.5,158.9 898.0,158.4" fill="#373b41" stroke="rgba(20,24,30,0.55)" stroke-width="0.7"/><polygon points="894.0,206.4 930.2,194.0 904.4,176.7 868.2,189.0" fill="#17191c" stroke="rgba(20,24,30,0.55)" stroke-width="0.7"/><polygon points="904.4,176.7 930.2,194.0 930.2,176.0 904.4,158.6" fill="#1a1c1f" stroke="rgba(20,24,30,0.55)" stroke-width="0.7"/><polygon points="904.4,176.7 868.2,189.0 868.2,171.0 904.4,158.6" fill="#2a2d32" stroke="rgba(20,24,30,0.55)" stroke-width="0.7"/><polygon points="915.9,166.4 975.6,206.5 975.6,200.5 915.9,160.4" fill="#133a24" stroke="rgba(20,24,30,0.55)" stroke-width="0.7"/><polygon points="915.9,166.4 832.4,195.0 832.4,189.0 915.9,160.4" fill="#1f5e39" stroke="rgba(20,24,30,0.55)" stroke-width="0.7"/></svg>