<svg xmlns="http://www.w3.org/2000/svg" viewBox="0 0 1100 780" width="1100" height="780" role="img" aria-label="Tier 3 - Extended node, iso view, 78 bodies"><rect width="1100" height="780" fill="#f7f6f3"/><path d="M 638.7 258.1 Q 748 389.1 857.3 371.1" stroke="#4a4f56" stroke-width="1.6" fill="none" opacity="0.8"/><path d="M 806.7 209.8 Q 832 389.1 857.3 371.1" stroke="#4a4f56" stroke-width="1.6" fill="none" opacity="0.8"/><path d="M 982.5 188.3 Q 919.9 389.1 857.3 371.1" stroke="#4a4f56" stroke-width="1.6" fill="none" opacity="0.8"/><path d="M 765.3 346.3 Q 811.3 389.1 857.3 371.1" stroke="#4a4f56" stroke-width="1.6" fill="none" opacity="0.8"/><path d="M 987.1 236.1 Q 922.2 389.1 857.3 371.1" stroke="#4a4f56" stroke-width="1.6" fill="none" opacity="0.8"/><path d="M 857.3 371.1 Q 655.9 389.1 454.5 361.7" stroke="#4a4f56" stroke-width="1.6" fill="none" opacity="0.8"/><path d="M 512.9 576.2 Q 432.9 594.2 352.9 388.5" stroke="#c8b48a" stroke-width="3" fill="none" opacity="0.8"/><path d="M 639.2 533.0 Q 509.40000000000003 551 379.6 379.4" stroke="#c8b48a" stroke-width="3" fill="none" opacity="0.8"/><path d="M 101.6 208.3 Q 139.5 309.5 177.4 291.5" stroke="#4a4f56" stroke-width="1.6" fill="none" opacity="0.8"/><path d="M 191.5 177.6 Q 184.45 309.5 177.4 291.5" stroke="#4a4f56" stroke-width="1.6" fill="none" opacity="0.8"/><path d="M 270.1 145.4 Q 359.8 216.3 449.5 198.3" stroke="#4a4f56" stroke-width="1.6" fill="none" opacity="0.8"/><path d="M 359.1 120.2 Q 404.3 216.3 449.5 198.3" stroke="#4a4f56" stroke-width="1.6" fill="none" opacity="0.8"/><polygon points="501.3,637.1 505.1,626.1 505.1,531.8 501.3,542.8" fill="#1d1f21" stroke="rgba(20,24,30,0.55)" stroke-width="0.7"/><polygon points="582.3,622.6 590.4,633.0 590.4,538.6 582.3,528.2" fill="#131517" stroke="rgba(20,24,30,0.55)" stroke-width="0.7"/><polygon points="505.1,626.1 519.8,617.6 519.8,523.2 505.1,531.8" fill="#222427" stroke="rgba(20,24,30,0.55)" stroke-width="0.7"/><polygon points="564.4,615.5 541.5,613.7 519.8,617.6 505.1,626.1 501.3,637.1 509.4,647.5 527.3,654.6 550.2,656.4 571.9,652.5 586.6,643.9 590.4,633.0 582.3,622.6" fill="#131517" stroke="rgba(20,24,30,0.55)" stroke-width="0.7"/><polygon points="564.4,615.5 582.3,622.6 582.3,528.2 564.4,521.2" fill="#191c1e" stroke="rgba(20,24,30,0.55)" stroke-width="0.7"/><polygon points="519.8,617.6 541.5,613.7 541.5,519.3 519.8,523.2" fill="#232629" stroke="rgba(20,24,30,0.55)" stroke-width="0.7"/><polygon points="541.5,613.7 564.4,615.5 564.4,521.2 541.5,519.3" fill="#202225" stroke="rgba(20,24,30,0.55)" stroke-width="0.7"/><polygon points="532.6,699.2 625.0,667.6 559.0,623.3 466.7,654.9" fill="#113420" stroke="rgba(20,24,30,0.55)" stroke-width="0.7"/><polygon points="559.0,623.3 625.0,667.6 625.0,641.4 559.0,597.1" fill="#133a24" stroke="rgba(20,24,30,0.55)" stroke-width="0.7"/><polygon points="559.0,623.3 466.7,654.9 466.7,628.7 559.0,597.1" fill="#1f5e39" stroke="rgba(20,24,30,0.55)" stroke-width="0.7"/><polygon points="627.6,593.9 631.4,582.9 631.4,488.6 627.6,499.5" fill="#1d1f21" stroke="rgba(20,24,30,0.55)" stroke-width="0.7"/><polygon points="708.6,579.3 716.8,589.7 716.8,495.4 708.6,485.0" fill="#131517" stroke="rgba(20,24,30,0.55)" stroke-width="0.7"/><polygon points="631.4,582.9 646.2,574.3 646.2,480.0 631.4,488.6" fill="#222427" stroke="rgba(20,24,30,0.55)" stroke-width="0.7"/><polygon points="690.7,572.2 667.9,570.4 646.2,574.3 631.4,582.9 627.6,593.9 635.7,604.3 653.6,611.3 676.5,613.2 698.2,609.3 712.9,600.7 716.8,589.7 708.6,579.3" fill="#131517" stroke="rgba(20,24,30,0.55)" stroke-width="0.7"/><polygon points="690.7,572.2 708.6,579.3 708.6,485.0 690.7,477.9" fill="#191c1e" stroke="rgba(20,24,30,0.55)" stroke-width="0.7"/><polygon points="646.2,574.3 667.9,570.4 667.9,476.1 646.2,480.0" fill="#232629" stroke="rgba(20,24,30,0.55)" stroke-width="0.7"/><polygon points="667.9,570.4 690.7,572.2 690.7,477.9 667.9,476.1" fill="#202225" stroke="rgba(20,24,30,0.55)" stroke-width="0.7"/><polygon points="659.0,655.9 751.3,624.3 685.4,580.0 593.1,611.7" fill="#113420" stroke="rgba(20,24,30,0.55)" stroke-width="0.7"/><polygon points="685.4,580.0 751.3,624.3 751.3,598.1 685.4,553.9" fill="#133a24" stroke="rgba(20,24,30,0.55)" stroke-width="0.7"/><polygon points="685.4,580.0 593.1,611.7 593.1,585.5 685.4,553.9" fill="#1f5e39" stroke="rgba(20,24,30,0.55)" stroke-width="0.7"/><polygon points="316.9,354.9 317.6,353.1 317.6,324.2 316.9,326.1" fill="#7d8289" stroke="rgba(20,24,30,0.35)" stroke-width="0.5"/><polygon points="330.4,352.5 331.8,354.2 331.8,325.4 330.4,323.6" fill="#55585c" stroke="rgba(20,24,30,0.35)" stroke-width="0.5"/><polygon points="317.6,353.1 320.0,351.6 320.0,322.8 317.6,324.2" fill="#9399a1" stroke="rgba(20,24,30,0.35)" stroke-width="0.5"/><polygon points="327.4,351.3 330.4,352.5 330.4,323.6 327.4,322.5" fill="#70747a" stroke="rgba(20,24,30,0.35)" stroke-width="0.5"/><polygon points="320.0,351.6 323.6,351.0 323.6,322.2 320.0,322.8" fill="#999fa6" stroke="rgba(20,24,30,0.35)" stroke-width="0.5"/><polygon points="323.6,351.0 327.4,351.3 327.4,322.5 323.6,322.2" fill="#8c9198" stroke="rgba(20,24,30,0.35)" stroke-width="0.5"/><polygon points="327.4,351.3 323.6,351.0 320.0,351.6 317.6,353.1 316.9,354.9 318.3,356.6 321.3,357.8 325.1,358.1 328.7,357.5 331.2,356.0 331.8,354.2 330.4,352.5" fill="#55585c" stroke="rgba(20,24,30,0.35)" stroke-width="0.5"/><polygon points="316.9,400.7 317.6,398.9 317.6,370.1 316.9,371.9" fill="#7d8289" stroke="rgba(20,24,30,0.35)" stroke-width="0.5"/><polygon points="330.4,398.3 331.8,400.1 331.8,371.2 330.4,369.5" fill="#55585c" stroke="rgba(20,24,30,0.35)" stroke-width="0.5"/><polygon points="317.6,398.9 320.0,397.5 320.0,368.7 317.6,370.1" fill="#9399a1" stroke="rgba(20,24,30,0.35)" stroke-width="0.5"/><polygon points="327.4,397.1 330.4,398.3 330.4,369.5 327.4,368.3" fill="#70747a" stroke="rgba(20,24,30,0.35)" stroke-width="0.5"/><polygon points="320.0,397.5 323.6,396.8 323.6,368.0 320.0,368.7" fill="#999fa6" stroke="rgba(20,24,30,0.35)" stroke-width="0.5"/><polygon points="323.6,396.8 327.4,397.1 327.4,368.3 323.6,368.0" fill="#8c9198" stroke="rgba(20,24,30,0.35)" stroke-width="0.5"/><polygon points="327.4,397.1 323.6,396.8 320.0,397.5 317.6,398.9 316.9,400.7 318.3,402.5 321.3,403.7 325.1,404.0 328.7,403.3 331.2,401.9 331.8,400.1 330.4,398.3" fill="#55585c" stroke="rgba(20,24,30,0.35)" stroke-width="0.5"/><polygon points="190.7,297.8 203.3,293.5 196.7,289.1 184.1,293.4" fill="#17191c" stroke="rgba(20,24,30,0.55)" stroke-width="0.7"/><polygon points="196.7,289.1 203.3,293.5 203.3,290.6 196.7,286.2" fill="#1a1c1f" stroke="rgba(20,24,30,0.55)" stroke-width="0.7"/><polygon points="196.7,289.1 184.1,293.4 184.1,290.5 196.7,286.2" fill="#2a2d32" stroke="rgba(20,24,30,0.55)" stroke-width="0.7"/><polygon points="177.4,316.4 238.1,295.7 206.9,274.7 146.2,295.5" fill="#113420" stroke="rgba(20,24,30,0.55)" stroke-width="0.7"/><polygon points="161.1,293.1 203.6,278.6 199.5,275.8 156.9,290.3" fill="#0f1114" stroke="rgba(20,24,30,0.55)" stroke-width="0.7"/><polygon points="199.5,275.8 156.9,290.3 156.9,282.5 199.5,267.9" fill="#1c1f24" stroke="rgba(20,24,30,0.55)" stroke-width="0.7"/><polygon points="343.8,358.6 334.2,357.8 325.2,359.5 319.0,363.0 317.5,367.6 320.8,372.0 328.3,374.9 337.8,375.7 346.9,374.0 353.0,370.5 354.6,365.9 351.2,361.6" fill="#55585c" stroke="rgba(20,24,30,0.55)" stroke-width="0.7"/><polygon points="317.5,367.6 319.0,363.0 319.0,355.2 317.5,359.8" fill="#7d8289" stroke="rgba(20,24,30,0.55)" stroke-width="0.7"/><polygon points="351.2,361.6 354.6,365.9 354.6,358.0 351.2,353.7" fill="#55585c" stroke="rgba(20,24,30,0.55)" stroke-width="0.7"/><polygon points="206.9,274.7 238.1,295.7 238.1,292.5 206.9,271.5" fill="#133a24" stroke="rgba(20,24,30,0.55)" stroke-width="0.7"/><polygon points="206.9,274.7 146.2,295.5 146.2,292.3 206.9,271.5" fill="#1f5e39" stroke="rgba(20,24,30,0.55)" stroke-width="0.7"/><polygon points="319.0,363.0 325.2,359.5 325.2,351.6 319.0,355.2" fill="#9399a1" stroke="rgba(20,24,30,0.55)" stroke-width="0.7"/><polygon points="199.5,275.8 203.6,278.6 203.6,270.7 199.5,267.9" fill="#111316" stroke="rgba(20,24,30,0.55)" stroke-width="0.7"/><polygon points="343.8,358.6 351.2,361.6 351.2,353.7 343.8,350.8" fill="#70747a" stroke="rgba(20,24,30,0.55)" stroke-width="0.7"/><polygon points="325.2,359.5 334.2,357.8 334.2,350.0 325.2,351.6" fill="#999fa6" stroke="rgba(20,24,30,0.55)" stroke-width="0.7"/><polygon points="334.2,357.8 343.8,358.6 343.8,350.8 334.2,350.0" fill="#8c9198" stroke="rgba(20,24,30,0.55)" stroke-width="0.7"/><polygon points="310.6,279.6 337.3,270.4 318.2,257.6 291.5,266.8" fill="#17191c" stroke="rgba(20,24,30,0.55)" stroke-width="0.7"/><polygon points="988.9,411.4 852.8,458.0 852.8,429.2 988.9,382.6" fill="#2e4e8d" stroke="rgba(20,24,30,0.55)" stroke-width="0.7"/><polygon points="274.9,313.0 408.5,267.2 347.8,226.5 214.2,272.2" fill="#113420" stroke="rgba(20,24,30,0.55)" stroke-width="0.7"/><polygon points="859.7,462.6 995.8,416.1 988.9,411.4 852.8,458.0" fill="#1a2b4f" stroke="rgba(20,24,30,0.55)" stroke-width="0.7"/><polygon points="318.2,257.6 337.3,270.4 337.3,266.5 318.2,253.7" fill="#1a1c1f" stroke="rgba(20,24,30,0.55)" stroke-width="0.7"/><polygon points="417.6,415.5 290.3,459.1 290.3,436.8 417.6,393.2" fill="#1c1f24" stroke="rgba(20,24,30,0.55)" stroke-width="0.7"/><polygon points="299.2,465.0 426.5,421.4 417.6,415.5 290.3,459.1" fill="#0f1114" stroke="rgba(20,24,30,0.55)" stroke-width="0.7"/><polygon points="230.8,363.9 571.0,247.5 473.8,182.2 133.7,298.7" fill="#0f3420" stroke="rgba(20,24,30,0.35)" stroke-width="0.5"/><polygon points="457.9,306.7 458.5,304.8 458.5,276.0 457.9,277.8" fill="#7d8289" stroke="rgba(20,24,30,0.35)" stroke-width="0.5"/><polygon points="318.2,257.6 291.5,266.8 291.5,262.8 318.2,253.7" fill="#2a2d32" stroke="rgba(20,24,30,0.55)" stroke-width="0.7"/><polygon points="471.4,304.2 472.7,306.0 472.7,277.1 471.4,275.4" fill="#55585c" stroke="rgba(20,24,30,0.35)" stroke-width="0.5"/><polygon points="458.5,304.8 460.9,303.4 460.9,274.6 458.5,276.0" fill="#9399a1" stroke="rgba(20,24,30,0.35)" stroke-width="0.5"/><polygon points="468.4,303.1 471.4,304.2 471.4,275.4 468.4,274.2" fill="#70747a" stroke="rgba(20,24,30,0.35)" stroke-width="0.5"/><polygon points="460.9,303.4 464.6,302.8 464.6,273.9 460.9,274.6" fill="#999fa6" stroke="rgba(20,24,30,0.35)" stroke-width="0.5"/><polygon points="464.6,302.8 468.4,303.1 468.4,274.2 464.6,273.9" fill="#8c9198" stroke="rgba(20,24,30,0.35)" stroke-width="0.5"/><polygon points="468.4,303.1 464.6,302.8 460.9,303.4 458.5,304.8 457.9,306.7 459.2,308.4 462.2,309.6 466.0,309.9 469.6,309.2 472.1,307.8 472.7,306.0 471.4,304.2" fill="#55585c" stroke="rgba(20,24,30,0.35)" stroke-width="0.5"/><polygon points="231.9,297.8 232.6,296.0 232.6,267.2 231.9,269.0" fill="#7d8289" stroke="rgba(20,24,30,0.35)" stroke-width="0.5"/><polygon points="324.7,353.2 363.5,339.9 335.8,321.3 296.9,334.6" fill="#222428" stroke="rgba(20,24,30,0.55)" stroke-width="0.7"/><polygon points="245.4,295.4 246.8,297.1 246.8,268.3 245.4,266.6" fill="#55585c" stroke="rgba(20,24,30,0.35)" stroke-width="0.5"/><polygon points="232.6,296.0 235.0,294.6 235.0,265.7 232.6,267.2" fill="#9399a1" stroke="rgba(20,24,30,0.35)" stroke-width="0.5"/><polygon points="242.5,294.2 245.4,295.4 245.4,266.6 242.5,265.4" fill="#70747a" stroke="rgba(20,24,30,0.35)" stroke-width="0.5"/><polygon points="235.0,294.6 238.6,293.9 238.6,265.1 235.0,265.7" fill="#999fa6" stroke="rgba(20,24,30,0.35)" stroke-width="0.5"/><polygon points="238.6,293.9 242.5,294.2 242.5,265.4 238.6,265.1" fill="#8c9198" stroke="rgba(20,24,30,0.35)" stroke-width="0.5"/><polygon points="243.6,268.5 337.2,236.5 333.0,233.7 239.4,265.7" fill="#0f1114" stroke="rgba(20,24,30,0.55)" stroke-width="0.7"/><polygon points="333.0,233.7 239.4,265.7 239.4,257.8 333.0,225.8" fill="#1c1f24" stroke="rgba(20,24,30,0.55)" stroke-width="0.7"/><polygon points="360.1,437.5 390.5,427.1 374.0,416.0 343.6,426.4" fill="#232529" stroke="rgba(20,24,30,0.55)" stroke-width="0.7"/><polygon points="242.5,294.2 238.6,293.9 235.0,294.6 232.6,296.0 231.9,297.8 233.3,299.5 236.3,300.7 240.1,301.0 243.7,300.4 246.2,299.0 246.8,297.1 245.4,295.4" fill="#55585c" stroke="rgba(20,24,30,0.35)" stroke-width="0.5"/><polygon points="457.9,352.5 458.5,350.7 458.5,321.9 457.9,323.7" fill="#7d8289" stroke="rgba(20,24,30,0.35)" stroke-width="0.5"/><polygon points="471.4,350.1 472.7,351.8 472.7,323.0 471.4,321.3" fill="#55585c" stroke="rgba(20,24,30,0.35)" stroke-width="0.5"/><polygon points="335.8,321.3 363.5,339.9 363.5,333.1 335.8,314.4" fill="#26282c" stroke="rgba(20,24,30,0.55)" stroke-width="0.7"/><polygon points="458.5,350.7 460.9,349.3 460.9,320.4 458.5,321.9" fill="#9399a1" stroke="rgba(20,24,30,0.35)" stroke-width="0.5"/><polygon points="468.4,348.9 471.4,350.1 471.4,321.3 468.4,320.1" fill="#70747a" stroke="rgba(20,24,30,0.35)" stroke-width="0.5"/><polygon points="460.9,349.3 464.6,348.6 464.6,319.8 460.9,320.4" fill="#999fa6" stroke="rgba(20,24,30,0.35)" stroke-width="0.5"/><polygon points="988.9,411.4 995.8,416.1 995.8,387.3 988.9,382.6" fill="#1d3158" stroke="rgba(20,24,30,0.55)" stroke-width="0.7"/><polygon points="464.6,348.6 468.4,348.9 468.4,320.1 464.6,319.8" fill="#8c9198" stroke="rgba(20,24,30,0.35)" stroke-width="0.5"/><polygon points="335.8,321.3 296.9,334.6 296.9,327.8 335.8,314.4" fill="#3c4047" stroke="rgba(20,24,30,0.55)" stroke-width="0.7"/><polygon points="374.0,416.0 390.5,427.1 390.5,423.4 374.0,412.3" fill="#272a2e" stroke="rgba(20,24,30,0.55)" stroke-width="0.7"/><polygon points="347.8,226.5 214.2,272.2 214.2,269.0 347.8,223.3" fill="#1f5e39" stroke="rgba(20,24,30,0.55)" stroke-width="0.7"/><polygon points="468.4,348.9 464.6,348.6 460.9,349.3 458.5,350.7 457.9,352.5 459.2,354.2 462.2,355.4 466.0,355.7 469.6,355.1 472.1,353.6 472.7,351.8 471.4,350.1" fill="#55585c" stroke="rgba(20,24,30,0.35)" stroke-width="0.5"/><polygon points="417.6,415.5 426.5,421.4 426.5,399.2 417.6,393.2" fill="#111316" stroke="rgba(20,24,30,0.55)" stroke-width="0.7"/><polygon points="374.0,416.0 343.6,426.4 343.6,422.7 374.0,412.3" fill="#3e434a" stroke="rgba(20,24,30,0.55)" stroke-width="0.7"/><polygon points="321.9,393.5 479.9,339.4 382.7,274.2 224.8,328.3" fill="#113420" stroke="rgba(20,24,30,0.55)" stroke-width="0.7"/><polygon points="347.8,226.5 408.5,267.2 408.5,264.1 347.8,223.3" fill="#133a24" stroke="rgba(20,24,30,0.55)" stroke-width="0.7"/><polygon points="808.6,490.4 1051.6,407.2 978.8,358.3 735.8,441.5" fill="#17191c" stroke="rgba(20,24,30,0.55)" stroke-width="0.7"/><polygon points="231.9,343.7 232.6,341.8 232.6,313.0 231.9,314.8" fill="#7d8289" stroke="rgba(20,24,30,0.35)" stroke-width="0.5"/><polygon points="245.4,341.2 246.8,343.0 246.8,314.2 245.4,312.4" fill="#55585c" stroke="rgba(20,24,30,0.35)" stroke-width="0.5"/><polygon points="232.6,341.8 235.0,340.4 235.0,311.6 232.6,313.0" fill="#9399a1" stroke="rgba(20,24,30,0.35)" stroke-width="0.5"/><polygon points="242.5,340.1 245.4,341.2 245.4,312.4 242.5,311.2" fill="#70747a" stroke="rgba(20,24,30,0.35)" stroke-width="0.5"/><polygon points="235.0,340.4 238.6,339.8 238.6,310.9 235.0,311.6" fill="#999fa6" stroke="rgba(20,24,30,0.35)" stroke-width="0.5"/><polygon points="238.6,339.8 242.5,340.1 242.5,311.2 238.6,310.9" fill="#8c9198" stroke="rgba(20,24,30,0.35)" stroke-width="0.5"/><polygon points="86.4,205.5 94.2,202.9 88.7,199.1 80.9,201.8" fill="#17191c" stroke="rgba(20,24,30,0.55)" stroke-width="0.7"/><polygon points="242.5,340.1 238.6,339.8 235.0,340.4 232.6,341.8 231.9,343.7 233.3,345.4 236.3,346.6 240.1,346.9 243.7,346.2 246.2,344.8 246.8,343.0 245.4,341.2" fill="#55585c" stroke="rgba(20,24,30,0.35)" stroke-width="0.5"/><polygon points="88.7,199.1 94.2,202.9 94.2,200.0 88.7,196.2" fill="#1a1c1f" stroke="rgba(20,24,30,0.55)" stroke-width="0.7"/><polygon points="88.7,199.1 80.9,201.8 80.9,198.9 88.7,196.2" fill="#2a2d32" stroke="rgba(20,24,30,0.55)" stroke-width="0.7"/><polygon points="333.0,233.7 337.2,236.5 337.2,228.6 333.0,225.8" fill="#111316" stroke="rgba(20,24,30,0.55)" stroke-width="0.7"/><polygon points="71.2,225.3 132.0,204.5 100.7,183.5 40.0,204.3" fill="#113420" stroke="rgba(20,24,30,0.55)" stroke-width="0.7"/><polygon points="450.5,414.4 461.5,410.7 457.1,407.8 446.2,411.5" fill="#777261" stroke="rgba(20,24,30,0.55)" stroke-width="0.7"/><polygon points="457.1,407.8 446.2,411.5 446.2,403.7 457.1,399.9" fill="#d6ceae" stroke="rgba(20,24,30,0.55)" stroke-width="0.7"/><polygon points="457.1,407.8 461.5,410.7 461.5,402.8 457.1,399.9" fill="#85806c" stroke="rgba(20,24,30,0.55)" stroke-width="0.7"/><polygon points="430.9,315.7 431.7,313.3 431.7,297.6 430.9,300.0" fill="#a48a4f" stroke="rgba(20,24,30,0.55)" stroke-width="0.7"/><polygon points="448.3,417.8 455.6,415.4 434.7,401.4 427.5,403.9" fill="#665d46" stroke="rgba(20,24,30,0.55)" stroke-width="0.7"/><polygon points="434.7,401.4 455.6,415.4 455.6,408.5 434.7,394.6" fill="#72684e" stroke="rgba(20,24,30,0.55)" stroke-width="0.7"/><polygon points="448.4,312.5 450.2,314.8 450.2,299.1 448.4,296.8" fill="#6f5d35" stroke="rgba(20,24,30,0.55)" stroke-width="0.7"/><polygon points="444.5,311.0 439.6,310.6 434.9,311.4 431.7,313.3 430.9,315.7 432.6,317.9 436.5,319.5 441.4,319.9 446.2,319.0 449.3,317.2 450.2,314.8 448.4,312.5" fill="#6f5d35" stroke="rgba(20,24,30,0.55)" stroke-width="0.7"/><polygon points="431.7,313.3 434.9,311.4 434.9,295.7 431.7,297.6" fill="#c0a25d" stroke="rgba(20,24,30,0.55)" stroke-width="0.7"/><polygon points="473.8,182.2 133.7,298.7 133.7,294.5 473.8,178.0" fill="#1b5d39" stroke="rgba(20,24,30,0.35)" stroke-width="0.5"/><polygon points="444.5,311.0 448.4,312.5 448.4,296.8 444.5,295.3" fill="#927b46" stroke="rgba(20,24,30,0.55)" stroke-width="0.7"/><polygon points="338.8,421.9 375.2,409.4 349.2,392.0 312.8,404.4" fill="#2e3034" stroke="rgba(20,24,30,0.55)" stroke-width="0.7"/><polygon points="434.9,311.4 439.6,310.6 439.6,294.9 434.9,295.7" fill="#c7a760" stroke="rgba(20,24,30,0.55)" stroke-width="0.7"/><polygon points="439.6,310.6 444.5,311.0 444.5,295.3 439.6,294.9" fill="#b69958" stroke="rgba(20,24,30,0.55)" stroke-width="0.7"/><polygon points="54.9,202.0 97.5,187.4 93.3,184.6 50.8,199.2" fill="#0f1114" stroke="rgba(20,24,30,0.55)" stroke-width="0.7"/><polygon points="93.3,184.6 50.8,199.2 50.8,191.3 93.3,176.8" fill="#1c1f24" stroke="rgba(20,24,30,0.55)" stroke-width="0.7"/><polygon points="434.7,401.4 427.5,403.9 427.5,397.1 434.7,394.6" fill="#b7a77e" stroke="rgba(20,24,30,0.55)" stroke-width="0.7"/><polygon points="100.7,183.5 132.0,204.5 132.0,201.4 100.7,180.4" fill="#133a24" stroke="rgba(20,24,30,0.55)" stroke-width="0.7"/><polygon points="100.7,183.5 40.0,204.3 40.0,201.2 100.7,180.4" fill="#1f5e39" stroke="rgba(20,24,30,0.55)" stroke-width="0.7"/><polygon points="349.2,392.0 375.2,409.4 375.2,403.1 349.2,385.7" fill="#33363a" stroke="rgba(20,24,30,0.55)" stroke-width="0.7"/><polygon points="978.8,358.3 735.8,441.5 735.8,394.3 978.8,311.1" fill="#2a2d32" stroke="rgba(20,24,30,0.55)" stroke-width="0.7"/><polygon points="297.6,473.6 504.2,402.9 407.0,337.7 200.5,408.4" fill="#113d25" stroke="rgba(20,24,30,0.35)" stroke-width="0.5"/><polygon points="391.4,409.2 415.7,400.9 398.3,389.2 374.0,397.5" fill="#292b2f" stroke="rgba(20,24,30,0.55)" stroke-width="0.7"/><polygon points="349.2,392.0 312.8,404.4 312.8,398.2 349.2,385.7" fill="#52575e" stroke="rgba(20,24,30,0.55)" stroke-width="0.7"/><polygon points="93.3,184.6 97.5,187.4 97.5,179.6 93.3,176.8" fill="#111316" stroke="rgba(20,24,30,0.55)" stroke-width="0.7"/><polygon points="398.3,389.2 415.7,400.9 415.7,396.4 398.3,384.8" fill="#2d3135" stroke="rgba(20,24,30,0.55)" stroke-width="0.7"/><polygon points="382.7,274.2 479.9,339.4 479.9,335.3 382.7,270.0" fill="#133a24" stroke="rgba(20,24,30,0.55)" stroke-width="0.7"/><polygon points="473.8,378.3 504.2,398.7 504.2,355.8 473.8,335.4" fill="#17191d" stroke="rgba(20,24,30,0.55)" stroke-width="0.7"/><polygon points="347.3,303.1 352.2,301.5 349.6,299.7 344.7,301.4" fill="#23662c" stroke="rgba(20,24,30,0.55)" stroke-width="0.7"/><polygon points="226.0,400.4 247.9,392.9 242.0,388.9 220.1,396.4" fill="#55585c" stroke="rgba(20,24,30,0.55)" stroke-width="0.7"/><polygon points="468.9,410.8 504.2,398.7 473.8,378.3 438.6,390.4" fill="#15171a" stroke="rgba(20,24,30,0.55)" stroke-width="0.7"/><polygon points="349.6,299.7 352.2,301.5 352.2,298.9 349.6,297.1" fill="#277231" stroke="rgba(20,24,30,0.55)" stroke-width="0.7"/><polygon points="349.6,299.7 344.7,301.4 344.7,298.8 349.6,297.1" fill="#3eb74f" stroke="rgba(20,24,30,0.55)" stroke-width="0.7"/><polygon points="398.3,389.2 374.0,397.5 374.0,393.1 398.3,384.8" fill="#494e55" stroke="rgba(20,24,30,0.55)" stroke-width="0.7"/><polygon points="242.0,388.9 220.1,396.4 220.1,387.8 242.0,380.3" fill="#989ea6" stroke="rgba(20,24,30,0.55)" stroke-width="0.7"/><polygon points="242.0,388.9 247.9,392.9 247.9,384.2 242.0,380.3" fill="#5f6267" stroke="rgba(20,24,30,0.55)" stroke-width="0.7"/><polygon points="473.8,378.3 438.6,390.4 438.6,347.4 473.8,335.4" fill="#26292e" stroke="rgba(20,24,30,0.55)" stroke-width="0.7"/><polygon points="382.7,274.2 224.8,328.3 224.8,324.1 382.7,270.0" fill="#1f5e39" stroke="rgba(20,24,30,0.55)" stroke-width="0.7"/><polygon points="393.1,296.7 400.4,294.2 395.2,290.7 387.9,293.2" fill="#6f5d35" stroke="rgba(20,24,30,0.55)" stroke-width="0.7"/><polygon points="368.8,302.7 241.5,346.2 241.5,324.0 368.8,280.4" fill="#1c1f24" stroke="rgba(20,24,30,0.55)" stroke-width="0.7"/><polygon points="250.3,352.2 377.7,308.6 368.8,302.7 241.5,346.2" fill="#0f1114" stroke="rgba(20,24,30,0.55)" stroke-width="0.7"/><polygon points="395.2,290.7 400.4,294.2 400.4,290.5 395.2,287.0" fill="#7c683c" stroke="rgba(20,24,30,0.55)" stroke-width="0.7"/><polygon points="395.2,290.7 387.9,293.2 387.9,289.5 395.2,287.0" fill="#c7a760" stroke="rgba(20,24,30,0.55)" stroke-width="0.7"/><polygon points="978.8,358.3 1051.6,407.2 1051.6,360.1 978.8,311.1" fill="#1a1c1f" stroke="rgba(20,24,30,0.55)" stroke-width="0.7"/><polygon points="259.7,388.5 277.2,382.5 271.6,378.8 254.1,384.8" fill="#55585c" stroke="rgba(20,24,30,0.55)" stroke-width="0.7"/><polygon points="176.4,174.5 183.7,172.0 178.5,168.6 171.2,171.0" fill="#17191c" stroke="rgba(20,24,30,0.55)" stroke-width="0.7"/><polygon points="271.6,378.8 254.1,384.8 254.1,376.1 271.6,370.1" fill="#989ea6" stroke="rgba(20,24,30,0.55)" stroke-width="0.7"/><polygon points="178.5,168.6 183.7,172.0 183.7,169.7 178.5,166.2" fill="#1a1c1f" stroke="rgba(20,24,30,0.55)" stroke-width="0.7"/><polygon points="372.9,249.6 373.5,247.8 373.5,218.9 372.9,220.8" fill="#7d8289" stroke="rgba(20,24,30,0.35)" stroke-width="0.5"/><polygon points="473.8,182.2 571.0,247.5 571.0,243.3 473.8,178.0" fill="#113a24" stroke="rgba(20,24,30,0.35)" stroke-width="0.5"/><polygon points="271.6,378.8 277.2,382.5 277.2,373.9 271.6,370.1" fill="#5f6267" stroke="rgba(20,24,30,0.55)" stroke-width="0.7"/><polygon points="178.5,168.6 171.2,171.0 171.2,168.7 178.5,166.2" fill="#2a2d32" stroke="rgba(20,24,30,0.55)" stroke-width="0.7"/><polygon points="386.4,247.2 387.7,248.9 387.7,220.1 386.4,218.3" fill="#55585c" stroke="rgba(20,24,30,0.35)" stroke-width="0.5"/><polygon points="161.1,194.5 221.9,173.7 190.6,152.8 129.9,173.6" fill="#113420" stroke="rgba(20,24,30,0.55)" stroke-width="0.7"/><polygon points="373.5,247.8 376.0,246.3 376.0,217.5 373.5,218.9" fill="#9399a1" stroke="rgba(20,24,30,0.35)" stroke-width="0.5"/><polygon points="254.6,386.3 283.8,376.4 281.0,374.5 251.9,384.5" fill="#3b3e42" stroke="rgba(20,24,30,0.55)" stroke-width="0.7"/><polygon points="319.6,366.9 356.0,391.4 356.0,383.5 319.6,359.1" fill="#7b6f55" stroke="rgba(20,24,30,0.55)" stroke-width="0.7"/><polygon points="349.7,393.5 356.0,391.4 319.6,366.9 313.3,369.1" fill="#6e634c" stroke="rgba(20,24,30,0.55)" stroke-width="0.7"/><polygon points="383.4,246.0 386.4,247.2 386.4,218.3 383.4,217.2" fill="#70747a" stroke="rgba(20,24,30,0.35)" stroke-width="0.5"/><polygon points="281.0,374.5 251.9,384.5 251.9,380.3 281.0,370.3" fill="#6a6f77" stroke="rgba(20,24,30,0.55)" stroke-width="0.7"/><polygon points="376.0,246.3 379.6,245.7 379.6,216.9 376.0,217.5" fill="#999fa6" stroke="rgba(20,24,30,0.35)" stroke-width="0.5"/><polygon points="379.6,245.7 383.4,246.0 383.4,217.2 379.6,216.9" fill="#8c9198" stroke="rgba(20,24,30,0.35)" stroke-width="0.5"/><polygon points="383.4,246.0 379.6,245.7 376.0,246.3 373.5,247.8 372.9,249.6 374.2,251.3 377.2,252.5 381.0,252.8 384.6,252.1 387.1,250.7 387.7,248.9 386.4,247.2" fill="#55585c" stroke="rgba(20,24,30,0.35)" stroke-width="0.5"/><polygon points="281.0,374.5 283.8,376.4 283.8,372.2 281.0,370.3" fill="#42454a" stroke="rgba(20,24,30,0.55)" stroke-width="0.7"/><polygon points="379.6,381.6 394.2,376.6 383.7,369.6 369.2,374.6" fill="#292b2f" stroke="rgba(20,24,30,0.55)" stroke-width="0.7"/><polygon points="253.4,396.0 289.9,383.6 270.8,370.7 234.3,383.2" fill="#323236" stroke="rgba(20,24,30,0.35)" stroke-width="0.5"/><polygon points="144.8,171.2 187.4,156.7 183.2,153.9 140.7,168.4" fill="#0f1114" stroke="rgba(20,24,30,0.55)" stroke-width="0.7"/><polygon points="183.2,153.9 140.7,168.4 140.7,160.6 183.2,146.0" fill="#1c1f24" stroke="rgba(20,24,30,0.55)" stroke-width="0.7"/><polygon points="383.7,369.6 394.2,376.6 394.2,373.4 383.7,366.4" fill="#2d3135" stroke="rgba(20,24,30,0.55)" stroke-width="0.7"/><polygon points="441.7,356.8 472.1,377.2 472.1,334.2 441.7,313.8" fill="#1d3158" stroke="rgba(20,24,30,0.55)" stroke-width="0.7"/><polygon points="436.8,389.2 472.1,377.2 441.7,356.8 406.5,368.8" fill="#1a2b4f" stroke="rgba(20,24,30,0.55)" stroke-width="0.7"/><polygon points="383.7,369.6 369.2,374.6 369.2,371.4 383.7,366.4" fill="#494e55" stroke="rgba(20,24,30,0.55)" stroke-width="0.7"/><polygon points="293.7,376.9 311.2,370.9 305.6,367.1 288.1,373.1" fill="#55585c" stroke="rgba(20,24,30,0.55)" stroke-width="0.7"/><polygon points="305.6,367.1 288.1,373.1 288.1,364.5 305.6,358.5" fill="#989ea6" stroke="rgba(20,24,30,0.55)" stroke-width="0.7"/><polygon points="190.6,152.8 221.9,173.7 221.9,170.6 190.6,149.6" fill="#133a24" stroke="rgba(20,24,30,0.55)" stroke-width="0.7"/><polygon points="346.3,357.8 382.8,382.2 382.8,374.4 346.3,349.9" fill="#7b6f55" stroke="rgba(20,24,30,0.55)" stroke-width="0.7"/><polygon points="190.6,152.8 129.9,173.6 129.9,170.4 190.6,149.6" fill="#1f5e39" stroke="rgba(20,24,30,0.55)" stroke-width="0.7"/><polygon points="376.5,384.4 382.8,382.2 346.3,357.8 340.0,359.9" fill="#6e634c" stroke="rgba(20,24,30,0.55)" stroke-width="0.7"/><polygon points="305.6,367.1 311.2,370.9 311.2,362.2 305.6,358.5" fill="#5f6267" stroke="rgba(20,24,30,0.55)" stroke-width="0.7"/><polygon points="441.7,356.8 406.5,368.8 406.5,325.9 441.7,313.8" fill="#2e4e8d" stroke="rgba(20,24,30,0.55)" stroke-width="0.7"/><polygon points="319.6,366.9 313.3,369.1 313.3,361.2 319.6,359.1" fill="#c6b289" stroke="rgba(20,24,30,0.55)" stroke-width="0.7"/><polygon points="270.8,370.7 289.9,383.6 289.9,380.9 270.8,368.1" fill="#37373c" stroke="rgba(20,24,30,0.35)" stroke-width="0.5"/><polygon points="372.9,295.4 373.5,293.6 373.5,264.8 372.9,266.6" fill="#7d8289" stroke="rgba(20,24,30,0.35)" stroke-width="0.5"/><polygon points="270.8,370.7 234.3,383.2 234.3,380.6 270.8,368.1" fill="#595961" stroke="rgba(20,24,30,0.35)" stroke-width="0.5"/><polygon points="407.0,337.7 200.5,408.4 200.5,404.2 407.0,333.5" fill="#1f6e42" stroke="rgba(20,24,30,0.35)" stroke-width="0.5"/><polygon points="183.2,153.9 187.4,156.7 187.4,148.8 183.2,146.0" fill="#111316" stroke="rgba(20,24,30,0.55)" stroke-width="0.7"/><polygon points="386.4,293.0 387.7,294.7 387.7,265.9 386.4,264.2" fill="#55585c" stroke="rgba(20,24,30,0.35)" stroke-width="0.5"/><polygon points="368.8,302.7 377.7,308.6 377.7,286.3 368.8,280.4" fill="#111316" stroke="rgba(20,24,30,0.55)" stroke-width="0.7"/><polygon points="373.5,293.6 376.0,292.2 376.0,263.4 373.5,264.8" fill="#9399a1" stroke="rgba(20,24,30,0.35)" stroke-width="0.5"/><polygon points="383.4,291.8 386.4,293.0 386.4,264.2 383.4,263.0" fill="#70747a" stroke="rgba(20,24,30,0.35)" stroke-width="0.5"/><polygon points="376.0,292.2 379.6,291.5 379.6,262.7 376.0,263.4" fill="#999fa6" stroke="rgba(20,24,30,0.35)" stroke-width="0.5"/><polygon points="379.6,291.5 383.4,291.8 383.4,263.0 379.6,262.7" fill="#8c9198" stroke="rgba(20,24,30,0.35)" stroke-width="0.5"/><polygon points="407.0,337.7 504.2,402.9 504.2,398.7 407.0,333.5" fill="#134429" stroke="rgba(20,24,30,0.35)" stroke-width="0.5"/><polygon points="383.4,291.8 379.6,291.5 376.0,292.2 373.5,293.6 372.9,295.4 374.2,297.2 377.2,298.3 381.0,298.6 384.6,298.0 387.1,296.6 387.7,294.7 386.4,293.0" fill="#55585c" stroke="rgba(20,24,30,0.35)" stroke-width="0.5"/><polygon points="682.2,382.5 735.6,364.2 697.5,338.5 644.0,356.8" fill="#77756c" stroke="rgba(20,24,30,0.55)" stroke-width="0.7"/><polygon points="346.3,357.8 340.0,359.9 340.0,352.1 346.3,349.9" fill="#c6b289" stroke="rgba(20,24,30,0.55)" stroke-width="0.7"/><polygon points="697.5,338.5 735.6,364.2 735.6,324.9 697.5,299.2" fill="#858278" stroke="rgba(20,24,30,0.55)" stroke-width="0.7"/><polygon points="697.5,338.5 644.0,356.8 644.0,317.5 697.5,299.2" fill="#d6d2c2" stroke="rgba(20,24,30,0.55)" stroke-width="0.7"/><polygon points="256.4,142.6 264.9,139.7 260.4,136.7 251.9,139.6" fill="#17191c" stroke="rgba(20,24,30,0.55)" stroke-width="0.7"/><polygon points="260.4,136.7 264.9,139.7 264.9,137.1 260.4,134.0" fill="#1a1c1f" stroke="rgba(20,24,30,0.55)" stroke-width="0.7"/><polygon points="260.4,136.7 251.9,139.6 251.9,136.9 260.4,134.0" fill="#2a2d32" stroke="rgba(20,24,30,0.55)" stroke-width="0.7"/><polygon points="245.8,158.9 294.4,142.3 268.4,124.8 219.8,141.5" fill="#113420" stroke="rgba(20,24,30,0.55)" stroke-width="0.7"/><polygon points="402.1,365.9 437.4,353.9 409.6,335.2 374.4,347.3" fill="#25282b" stroke="rgba(20,24,30,0.55)" stroke-width="0.7"/><polygon points="409.6,335.2 437.4,353.9 437.4,318.5 409.6,299.9" fill="#292c31" stroke="rgba(20,24,30,0.55)" stroke-width="0.7"/><polygon points="724.4,355.7 743.9,349.0 730.0,339.7 710.6,346.4" fill="#222428" stroke="rgba(20,24,30,0.55)" stroke-width="0.7"/><polygon points="409.6,335.2 374.4,347.3 374.4,311.9 409.6,299.9" fill="#42474e" stroke="rgba(20,24,30,0.55)" stroke-width="0.7"/><polygon points="730.0,339.7 743.9,349.0 743.9,344.8 730.0,335.5" fill="#26282c" stroke="rgba(20,24,30,0.55)" stroke-width="0.7"/><polygon points="680.3,404.2 850.4,346.0 781.0,299.4 610.9,357.6" fill="#0f1720" stroke="rgba(20,24,30,0.55)" stroke-width="0.7"/><polygon points="232.3,139.3 266.3,127.7 262.1,124.9 228.1,136.5" fill="#0f1114" stroke="rgba(20,24,30,0.55)" stroke-width="0.7"/><polygon points="262.1,124.9 228.1,136.5 228.1,128.7 262.1,117.0" fill="#1c1f24" stroke="rgba(20,24,30,0.55)" stroke-width="0.7"/><polygon points="730.0,339.7 710.6,346.4 710.6,342.2 730.0,335.5" fill="#3c4047" stroke="rgba(20,24,30,0.55)" stroke-width="0.7"/><polygon points="268.4,124.8 294.4,142.3 294.4,139.2 268.4,121.7" fill="#133a24" stroke="rgba(20,24,30,0.55)" stroke-width="0.7"/><polygon points="268.4,124.8 219.8,141.5 219.8,138.3 268.4,121.7" fill="#1f5e39" stroke="rgba(20,24,30,0.55)" stroke-width="0.7"/><polygon points="262.1,124.9 266.3,127.7 266.3,119.8 262.1,117.0" fill="#111316" stroke="rgba(20,24,30,0.55)" stroke-width="0.7"/><polygon points="757.4,347.0 784.1,337.9 765.1,325.1 738.3,334.2" fill="#17191c" stroke="rgba(20,24,30,0.55)" stroke-width="0.7"/><polygon points="765.1,325.1 784.1,337.9 784.1,333.2 765.1,320.4" fill="#1a1c1f" stroke="rgba(20,24,30,0.55)" stroke-width="0.7"/><polygon points="872.7,197.5 878.0,182.1 878.0,98.3 872.7,113.6" fill="#1d1f21" stroke="rgba(20,24,30,0.55)" stroke-width="0.7"/><polygon points="765.1,325.1 738.3,334.2 738.3,329.5 765.1,320.4" fill="#2a2d32" stroke="rgba(20,24,30,0.55)" stroke-width="0.7"/><polygon points="986.1,177.1 997.5,191.7 997.5,107.9 986.1,93.3" fill="#131517" stroke="rgba(20,24,30,0.55)" stroke-width="0.7"/><polygon points="344.1,117.2 351.3,114.7 346.1,111.2 338.9,113.7" fill="#17191c" stroke="rgba(20,24,30,0.55)" stroke-width="0.7"/><polygon points="961.0,167.2 929.0,164.7 898.6,170.1 878.0,182.1 872.7,197.5 884.0,212.1 909.1,221.9 941.1,224.5 971.5,219.1 992.1,207.0 997.5,191.7 986.1,177.1" fill="#131517" stroke="rgba(20,24,30,0.55)" stroke-width="0.7"/><polygon points="346.1,111.2 351.3,114.7 351.3,112.0 346.1,108.6" fill="#1a1c1f" stroke="rgba(20,24,30,0.55)" stroke-width="0.7"/><polygon points="346.1,111.2 338.9,113.7 338.9,111.0 346.1,108.6" fill="#2a2d32" stroke="rgba(20,24,30,0.55)" stroke-width="0.7"/><polygon points="781.0,299.4 610.9,357.6 610.9,352.3 781.0,294.1" fill="#1b2a39" stroke="rgba(20,24,30,0.55)" stroke-width="0.7"/><polygon points="328.8,137.1 389.5,116.4 358.3,95.4 297.6,116.2" fill="#113420" stroke="rgba(20,24,30,0.55)" stroke-width="0.7"/><polygon points="814.5,325.7 822.3,323.1 806.7,312.6 798.9,315.3" fill="#55585c" stroke="rgba(20,24,30,0.55)" stroke-width="0.7"/><polygon points="806.7,312.6 822.3,323.1 822.3,314.7 806.7,304.2" fill="#5f6267" stroke="rgba(20,24,30,0.55)" stroke-width="0.7"/><polygon points="878.0,182.1 898.6,170.1 898.6,86.3 878.0,98.3" fill="#222427" stroke="rgba(20,24,30,0.55)" stroke-width="0.7"/><polygon points="781.0,299.4 850.4,346.0 850.4,340.7 781.0,294.1" fill="#111a24" stroke="rgba(20,24,30,0.55)" stroke-width="0.7"/><polygon points="312.5,113.8 355.0,99.3 350.9,96.5 308.3,111.0" fill="#0f1114" stroke="rgba(20,24,30,0.55)" stroke-width="0.7"/><polygon points="806.7,312.6 798.9,315.3 798.9,306.9 806.7,304.2" fill="#989ea6" stroke="rgba(20,24,30,0.55)" stroke-width="0.7"/><polygon points="350.9,96.5 308.3,111.0 308.3,103.2 350.9,88.6" fill="#1c1f24" stroke="rgba(20,24,30,0.55)" stroke-width="0.7"/><polygon points="961.0,167.2 986.1,177.1 986.1,93.3 961.0,83.4" fill="#191c1e" stroke="rgba(20,24,30,0.55)" stroke-width="0.7"/><polygon points="358.3,95.4 389.5,116.4 389.5,113.2 358.3,92.2" fill="#133a24" stroke="rgba(20,24,30,0.55)" stroke-width="0.7"/><polygon points="358.3,95.4 297.6,116.2 297.6,113.0 358.3,92.2" fill="#1f5e39" stroke="rgba(20,24,30,0.55)" stroke-width="0.7"/><polygon points="350.9,96.5 355.0,99.3 355.0,91.4 350.9,88.6" fill="#111316" stroke="rgba(20,24,30,0.55)" stroke-width="0.7"/><polygon points="898.6,170.1 929.0,164.7 929.0,80.8 898.6,86.3" fill="#232629" stroke="rgba(20,24,30,0.55)" stroke-width="0.7"/><polygon points="929.0,164.7 961.0,167.2 961.0,83.4 929.0,80.8" fill="#202225" stroke="rgba(20,24,30,0.55)" stroke-width="0.7"/><polygon points="914.2,359.3 1060.0,309.4 955.9,239.5 810.1,289.4" fill="#222428" stroke="rgba(20,24,30,0.55)" stroke-width="0.7"/><polygon points="523.2,296.2 557.2,284.6 536.4,270.6 502.3,282.2" fill="#55585c" stroke="rgba(20,24,30,0.55)" stroke-width="0.7"/><polygon points="955.9,239.5 1060.0,309.4 1060.0,204.6 955.9,134.7" fill="#26282c" stroke="rgba(20,24,30,0.55)" stroke-width="0.7"/><polygon points="536.4,270.6 557.2,284.6 557.2,271.5 536.4,257.5" fill="#5f6267" stroke="rgba(20,24,30,0.55)" stroke-width="0.7"/><polygon points="536.4,270.6 502.3,282.2 502.3,269.1 536.4,257.5" fill="#989ea6" stroke="rgba(20,24,30,0.55)" stroke-width="0.7"/><polygon points="955.9,239.5 810.1,289.4 810.1,184.6 955.9,134.7" fill="#3c4047" stroke="rgba(20,24,30,0.55)" stroke-width="0.7"/><polygon points="877.5,257.0 911.5,245.4 901.1,238.4 867.1,250.0" fill="#55585c" stroke="rgba(20,24,30,0.55)" stroke-width="0.7"/><polygon points="901.1,238.4 867.1,250.0 867.1,234.3 901.1,222.6" fill="#989ea6" stroke="rgba(20,24,30,0.55)" stroke-width="0.7"/><polygon points="901.1,238.4 911.5,245.4 911.5,229.6 901.1,222.6" fill="#5f6267" stroke="rgba(20,24,30,0.55)" stroke-width="0.7"/><polygon points="541.5,311.0 735.9,244.5 689.1,213.0 494.7,279.5" fill="#323438" stroke="rgba(20,24,30,0.55)" stroke-width="0.7"/><polygon points="689.1,213.0 494.7,279.5 494.7,245.5 689.1,179.0" fill="#595e65" stroke="rgba(20,24,30,0.55)" stroke-width="0.7"/><polygon points="696.2,223.4 697.1,220.8 697.1,199.8 696.2,202.4" fill="#a48a4f" stroke="rgba(20,24,30,0.55)" stroke-width="0.7"/><polygon points="715.1,220.0 717.0,222.4 717.0,201.4 715.1,199.0" fill="#6f5d35" stroke="rgba(20,24,30,0.55)" stroke-width="0.7"/><polygon points="689.1,213.0 735.9,244.5 735.9,210.4 689.1,179.0" fill="#373a3f" stroke="rgba(20,24,30,0.55)" stroke-width="0.7"/><polygon points="697.1,220.8 700.6,218.8 700.6,197.8 697.1,199.8" fill="#c0a25d" stroke="rgba(20,24,30,0.55)" stroke-width="0.7"/><polygon points="711.0,218.3 705.6,217.9 700.6,218.8 697.1,220.8 696.2,223.4 698.1,225.8 702.3,227.4 707.6,227.9 712.7,226.9 716.2,224.9 717.0,222.4 715.1,220.0" fill="#6f5d35" stroke="rgba(20,24,30,0.55)" stroke-width="0.7"/><polygon points="711.0,218.3 715.1,220.0 715.1,199.0 711.0,197.4" fill="#927b46" stroke="rgba(20,24,30,0.55)" stroke-width="0.7"/><polygon points="700.6,218.8 705.6,217.9 705.6,196.9 700.6,197.8" fill="#c7a760" stroke="rgba(20,24,30,0.55)" stroke-width="0.7"/><polygon points="705.6,217.9 711.0,218.3 711.0,197.4 705.6,196.9" fill="#b69958" stroke="rgba(20,24,30,0.55)" stroke-width="0.7"/><polygon points="796.5,224.5 818.3,217.0 812.8,213.3 790.9,220.7" fill="#55585c" stroke="rgba(20,24,30,0.55)" stroke-width="0.7"/><polygon points="812.8,213.3 790.9,220.7 790.9,212.4 812.8,204.9" fill="#989ea6" stroke="rgba(20,24,30,0.55)" stroke-width="0.7"/><polygon points="812.8,213.3 818.3,217.0 818.3,208.6 812.8,204.9" fill="#5f6267" stroke="rgba(20,24,30,0.55)" stroke-width="0.7"/><polygon points="916.1,220.3 923.8,217.6 910.0,208.3 902.2,211.0" fill="#55585c" stroke="rgba(20,24,30,0.55)" stroke-width="0.7"/><polygon points="910.0,208.3 923.8,217.6 923.8,209.8 910.0,200.5" fill="#5f6267" stroke="rgba(20,24,30,0.55)" stroke-width="0.7"/><polygon points="910.0,208.3 902.2,211.0 902.2,203.1 910.0,200.5" fill="#989ea6" stroke="rgba(20,24,30,0.55)" stroke-width="0.7"/><polygon points="765.4,184.8 766.3,182.0 766.3,174.2 765.4,176.9" fill="#32353b" stroke="rgba(20,24,30,0.55)" stroke-width="0.7"/><polygon points="781.2,179.4 775.4,178.9 770.0,179.9 766.3,182.0 765.4,184.8 767.4,187.4 771.9,189.2 777.6,189.6 783.0,188.6 786.7,186.5 787.7,183.8 785.6,181.2" fill="#222428" stroke="rgba(20,24,30,0.55)" stroke-width="0.7"/><polygon points="785.6,181.2 787.7,183.8 787.7,175.9 785.6,173.3" fill="#222428" stroke="rgba(20,24,30,0.55)" stroke-width="0.7"/><polygon points="766.3,182.0 770.0,179.9 770.0,172.0 766.3,174.2" fill="#3a3e45" stroke="rgba(20,24,30,0.55)" stroke-width="0.7"/><polygon points="781.2,179.4 785.6,181.2 785.6,173.3 781.2,171.5" fill="#2c2f34" stroke="rgba(20,24,30,0.55)" stroke-width="0.7"/><polygon points="770.3,238.0 843.1,213.0 791.1,178.1 718.2,203.0" fill="#113420" stroke="rgba(20,24,30,0.55)" stroke-width="0.7"/><polygon points="770.0,179.9 775.4,178.9 775.4,171.1 770.0,172.0" fill="#3c4047" stroke="rgba(20,24,30,0.55)" stroke-width="0.7"/><polygon points="775.4,178.9 781.2,179.4 781.2,171.5 775.4,171.1" fill="#373b41" stroke="rgba(20,24,30,0.55)" stroke-width="0.7"/><polygon points="772.0,213.0 803.6,202.2 781.0,187.0 749.4,197.8" fill="#17191c" stroke="rgba(20,24,30,0.55)" stroke-width="0.7"/><polygon points="781.0,187.0 803.6,202.2 803.6,186.4 781.0,171.3" fill="#1a1c1f" stroke="rgba(20,24,30,0.55)" stroke-width="0.7"/><polygon points="941.9,208.8 1005.1,187.2 996.4,181.4 933.2,203.0" fill="#17191c" stroke="rgba(20,24,30,0.55)" stroke-width="0.7"/><polygon points="781.0,187.0 749.4,197.8 749.4,182.1 781.0,171.3" fill="#2a2d32" stroke="rgba(20,24,30,0.55)" stroke-width="0.7"/><polygon points="996.4,181.4 933.2,203.0 933.2,192.5 996.4,170.9" fill="#2a2d32" stroke="rgba(20,24,30,0.55)" stroke-width="0.7"/><polygon points="791.1,178.1 843.1,213.0 843.1,207.8 791.1,172.8" fill="#133a24" stroke="rgba(20,24,30,0.55)" stroke-width="0.7"/><polygon points="996.4,181.4 1005.1,187.2 1005.1,176.7 996.4,170.9" fill="#1a1c1f" stroke="rgba(20,24,30,0.55)" stroke-width="0.7"/><polygon points="791.1,178.1 718.2,203.0 718.2,197.8 791.1,172.8" fill="#1f5e39" stroke="rgba(20,24,30,0.55)" stroke-width="0.7"/><polygon points="932.9,197.8 986.3,179.5 948.2,153.9 894.7,172.2" fill="#4c5056" stroke="rgba(20,24,30,0.55)" stroke-width="0.7"/><polygon points="915.7,232.2 1049.3,186.4 953.9,122.4 820.3,168.1" fill="#0f2017" stroke="rgba(20,24,30,0.55)" stroke-width="0.7"/><polygon points="948.2,153.9 986.3,179.5 986.3,170.4 948.2,144.7" fill="#555a60" stroke="rgba(20,24,30,0.55)" stroke-width="0.7"/><polygon points="948.2,153.9 894.7,172.2 894.7,163.0 948.2,144.7" fill="#8a909a" stroke="rgba(20,24,30,0.55)" stroke-width="0.7"/><polygon points="884.5,175.2 957.4,150.2 927.9,130.4 855.0,155.4" fill="#6f5d35" stroke="rgba(20,24,30,0.55)" stroke-width="0.7"/><polygon points="953.9,122.4 1049.3,186.4 1049.3,181.2 953.9,117.1" fill="#11241a" stroke="rgba(20,24,30,0.55)" stroke-width="0.7"/><polygon points="927.9,130.4 855.0,155.4 855.0,153.8 927.9,128.9" fill="#c7a760" stroke="rgba(20,24,30,0.55)" stroke-width="0.7"/><polygon points="927.9,130.4 957.4,150.2 957.4,148.7 927.9,128.9" fill="#7c683c" stroke="rgba(20,24,30,0.55)" stroke-width="0.7"/><polygon points="953.9,122.4 820.3,168.1 820.3,162.9 953.9,117.1" fill="#1b392a" stroke="rgba(20,24,30,0.55)" stroke-width="0.7"/></svg>